<svg xmlns="http://www.w3.org/2000/svg" width="27" height="27" viewBox="0 0 27 27"><defs><style>.a{fill:#007aff;}</style></defs><path class="a" d="M25.945,18.563A1.055,1.055,0,0,0,27,17.508V6.328a4.224,4.224,0,0,0-4.219-4.219H21.41V1.055a1.055,1.055,0,0,0-2.109,0V2.109H14.5V1.055a1.055,1.055,0,0,0-2.109,0V2.109H7.646V1.055a1.055,1.055,0,0,0-2.109,0V2.109H4.219A4.224,4.224,0,0,0,0,6.328V22.781A4.224,4.224,0,0,0,4.219,27H22.781A4.224,4.224,0,0,0,27,22.781a1.055,1.055,0,0,0-2.109,0,2.112,2.112,0,0,1-2.109,2.109H4.219a2.112,2.112,0,0,1-2.109-2.109V6.328A2.112,2.112,0,0,1,4.219,4.219H5.537V5.273a1.055,1.055,0,0,0,2.109,0V4.219h4.746V5.273a1.055,1.055,0,0,0,2.109,0V4.219h4.8V5.273a1.055,1.055,0,0,0,2.109,0V4.219h1.371a2.112,2.112,0,0,1,2.109,2.109v11.18A1.055,1.055,0,0,0,25.945,18.563Z"/><g transform="translate(5.523 10.029)"><g transform="translate(0 0)"><circle class="a" cx="1.049" cy="1.049" r="1.049"/></g></g><g transform="translate(14.719 10.029)"><g transform="translate(0 0)"><circle class="a" cx="1.049" cy="1.049" r="1.049"/></g></g><g transform="translate(19.285 10.029)"><g transform="translate(0 0)"><circle class="a" cx="1.049" cy="1.049" r="1.049"/></g></g><g transform="translate(5.523 14.595)"><g transform="translate(0 0)"><circle class="a" cx="1.049" cy="1.049" r="1.049"/></g></g><g transform="translate(5.523 19.224)"><g transform="translate(0 0)"><circle class="a" cx="1.049" cy="1.049" r="1.049"/></g></g><g transform="translate(10.152 10.029)"><g transform="translate(0 0)"><circle class="a" cx="1.049" cy="1.049" r="1.049"/></g></g><g transform="translate(10.152 14.595)"><g transform="translate(0 0)"><circle class="a" cx="1.049" cy="1.049" r="1.049"/></g></g><g transform="translate(10.152 19.224)"><g transform="translate(0 0)"><circle class="a" cx="1.049" cy="1.049" r="1.049"/></g></g><g transform="translate(14.719 14.595)"><g transform="translate(0 0)"><circle class="a" cx="1.049" cy="1.049" r="1.049"/></g></g><g transform="translate(19.285 14.595)"><g transform="translate(0 0)"><circle class="a" cx="1.049" cy="1.049" r="1.049"/></g></g><g transform="translate(14.719 19.224)"><g transform="translate(0 0)"><circle class="a" cx="1.049" cy="1.049" r="1.049"/></g></g></svg>