<svg xmlns="http://www.w3.org/2000/svg" width="108.351" height="85.25" viewBox="0 0 108.351 85.25"><defs><style>.a{opacity:0.88;}.b{fill:#3f3d56;}.c{fill:#fff;}.d{fill:#ee63ff;}.e{fill:#e6e6e6;}.f{fill:#ffb8b8;}.g{fill:#2f2e41;}.h{fill:#ccc;}</style></defs><g class="a"><path class="b" d="M271.944,132.369h.448V120.1a7.1,7.1,0,0,1,7.1-7.1h25.992a7.1,7.1,0,0,1,7.1,7.1v67.306a7.1,7.1,0,0,1-7.1,7.1H279.492a7.1,7.1,0,0,1-7.1-7.1V141.1h-.448Z" transform="translate(-216.949 -113)"/><path class="c" d="M292.314,128.933h3.393a2.519,2.519,0,0,0,2.332,3.471H312.93a2.519,2.519,0,0,0,2.333-3.471h3.169a5.3,5.3,0,0,1,5.3,5.3v67.207a5.3,5.3,0,0,1-5.3,5.3H292.314a5.3,5.3,0,0,1-5.3-5.3V134.236a5.3,5.3,0,0,1,5.3-5.3Zm.57,31.178a1.378,1.378,0,0,0,1.373,1.374H300.9a1.378,1.378,0,0,0,1.373-1.374v-.343a1.378,1.378,0,0,0-1.374-1.374h-6.639a1.378,1.378,0,0,0-1.374,1.374Zm-.744-6.066a1.378,1.378,0,0,0,1.374,1.374h23.807a1.378,1.378,0,0,0,1.373-1.374V153.7a1.378,1.378,0,0,0-1.373-1.374H293.513a1.377,1.377,0,0,0-1.373,1.374Zm0-6.066a1.378,1.378,0,0,0,1.374,1.374h23.807a1.378,1.378,0,0,0,1.373-1.374v-.343a1.378,1.378,0,0,0-1.373-1.373H293.513a1.377,1.377,0,0,0-1.373,1.373Zm0-6.066a1.378,1.378,0,0,0,1.374,1.374h23.807a1.378,1.378,0,0,0,1.373-1.374v-.343a1.378,1.378,0,0,0-1.373-1.374H293.513a1.378,1.378,0,0,0-1.373,1.374Z" transform="translate(-230.004 -126.918)"/><ellipse class="c" cx="0.801" cy="0.801" rx="0.801" ry="0.801" transform="translate(86.001 26.211)"/><ellipse class="c" cx="0.801" cy="0.801" rx="0.801" ry="0.801" transform="translate(83.368 26.211)"/><ellipse class="c" cx="0.801" cy="0.801" rx="0.801" ry="0.801" transform="translate(80.736 26.211)"/><ellipse class="c" cx="0.801" cy="0.801" rx="0.801" ry="0.801" transform="translate(78.103 26.211)"/><ellipse class="c" cx="0.801" cy="0.801" rx="0.801" ry="0.801" transform="translate(69.519 32.278)"/><ellipse class="c" cx="0.801" cy="0.801" rx="0.801" ry="0.801" transform="translate(66.886 32.278)"/><ellipse class="c" cx="0.801" cy="0.801" rx="0.801" ry="0.801" transform="translate(64.253 32.278)"/><path class="d" d="M306.98,456.6h27.152a2.4,2.4,0,0,1,2.405,2.405v13.229a2.4,2.4,0,0,1-2.405,2.405H306.98a2.4,2.4,0,0,1-2.405-2.405V459.006a2.4,2.4,0,0,1,2.405-2.405Zm27.823,1.641a3.319,3.319,0,0,0-3.852,2.317l-.043.132.137.024a3.623,3.623,0,0,0,.589.043,3.508,3.508,0,0,0,1.789-.451,3.8,3.8,0,0,0,1.474-1.91l.043-.132Zm-5.894,12.282h4.843a1.332,1.332,0,1,0,0-2.664H328.91a1.332,1.332,0,1,0,0,2.664Zm-22.034-.242a1.457,1.457,0,0,0,1.453,1.453h3.632a1.457,1.457,0,0,0,1.453-1.453V468.1a1.457,1.457,0,0,0-1.453-1.453h-3.632a1.457,1.457,0,0,0-1.453,1.453Z" transform="translate(-245.029 -413.141)"/><path class="b" d="M493.883,561.213h1.46a.393.393,0,1,1,0,.786h-1.46a.393.393,0,1,1,0-.786Z" transform="translate(-428.122 -504.521)"/><path class="b" d="M515.2,561.213h1.46a.393.393,0,1,1,0,.786H515.2a.393.393,0,0,1,0-.786Z" transform="translate(-452.133 -504.521)"/><path class="b" d="M493.881,552.438h1.46a.393.393,0,1,1,0,.786h-1.46a.393.393,0,1,1,0-.786Z" transform="translate(-428.12 -496.856)"/><path class="b" d="M515.2,552.438h1.46a.393.393,0,1,1,0,.786H515.2a.393.393,0,0,1,0-.786Z" transform="translate(-452.131 -496.856)"/><path class="b" d="M493.881,543.841h1.46a.393.393,0,1,1,0,.786h-1.46a.393.393,0,1,1,0-.786Z" transform="translate(-428.12 -489.347)"/><path class="b" d="M515.2,543.841h1.46a.393.393,0,1,1,0,.786H515.2a.393.393,0,0,1,0-.786Z" transform="translate(-452.131 -489.347)"/><rect class="e" width="3.514" height="3.514" transform="translate(43.34 48.465)"/><path class="b" d="M631.757,513h-5.818v5.818h5.818Zm-5.565.253H631.5v5.312h-5.312Z" transform="translate(-580.896 -462.407)"/><rect class="e" width="3.514" height="3.953" transform="translate(104.837 19.035)"/><path class="b" d="M186.939,235.818h5.818V230h-5.818Zm5.565-.253h-5.312v-5.312H192.5Z" transform="translate(-86.37 -215.201)"/><path class="f" d="M634.985,620.11h1.551l.738-5.981h-2.289Z" transform="translate(-609.303 -536.452)"/><path class="g" d="M620.164,657.914h-2.991V659.8h4.873A1.883,1.883,0,0,0,620.164,657.914Z" transform="translate(-591.823 -574.699)"/><path class="f" d="M695.985,620.11h1.551l.738-5.981h-2.289Z" transform="translate(-678.019 -536.452)"/><path class="g" d="M681.163,657.914h-2.99V659.8h4.873A1.883,1.883,0,0,0,681.163,657.914Z" transform="translate(-660.539 -574.699)"/><path class="f" d="M770.1,491.126a1.359,1.359,0,0,0-.57-2l-5.271-14.529-2.594,1.416,6.019,13.884a1.366,1.366,0,0,0,2.417,1.233Z" transform="translate(-736.636 -428.857)"/><path class="f" d="M866,506.581a1.359,1.359,0,0,0,.366-2.051L868,489.161l-2.952.135-.679,15.117A1.366,1.366,0,0,0,866,506.581Z" transform="translate(-847.245 -441.583)"/><ellipse class="f" cx="3.107" cy="3.107" rx="3.107" ry="3.107" transform="translate(20.361 36.831)"/><path class="h" d="M806.529,479.69h9.366l-.011-.073c-.017-.109-1.669-10.933-.451-14.474a1.494,1.494,0,0,0-.768-1.845h0c-1.742-.82-5.086-1.83-7.908.621a3.571,3.571,0,0,0-1.2,2.959Z" transform="translate(-787.751 -418.187)"/><path class="h" d="M787.68,477.457l4.216-.855-1.976-4.684a1.77,1.77,0,1,0-3.428.885Z" transform="translate(-761.335 -425.36)"/><path class="h" d="M864.378,481.309l.254-5.811a1.786,1.786,0,1,0-3.489-.6l-.953,5.43Z" transform="translate(-843.433 -427.624)"/><path class="g" d="M803.017,593.752c-1.507,5.739-1.671,13.037-1.265,21l2.024-.253,3.668-15.178,2.024,15.431,2.277-.127c.68-8.352,1.342-15.521.253-20.237Z" transform="translate(-783.927 -532.945)"/><path class="g" d="M814.519,399.815a1,1,0,0,0,1.731-.557,1.024,1.024,0,0,0,0-.2,4.56,4.56,0,0,1-.2-1.107.581.581,0,0,1,.106-.272c.462-.618,1.546.277,1.982-.283.267-.343-.047-.884.158-1.267.271-.506,1.072-.257,1.575-.534.559-.309.526-1.167.158-1.689a2.657,2.657,0,0,0-2.014-1.025,5.4,5.4,0,0,0-2.276.444,4.548,4.548,0,0,0-2.15,1.491,3.64,3.64,0,0,0-.368,3.1A5.841,5.841,0,0,0,814.519,399.815Z" transform="translate(-793.098 -357.476)"/><path class="b" d="M645.187,785.253h48.19a.126.126,0,1,0,0-.253h-48.19a.126.126,0,0,0,0,.253Z" transform="translate(-645.06 -700.003)"/></g></svg>