<svg xmlns="http://www.w3.org/2000/svg" width="15.286" height="17.394" viewBox="0 0 15.286 17.394"><path d="M51.09,131.517c-2.774-.015-5.068-5.368-5.068-8.094a5.02,5.02,0,0,1,4.9-5.428,5.9,5.9,0,0,1,1.847.429,4.314,4.314,0,0,0,1.055.286,3.42,3.42,0,0,0,.757-.232,6.35,6.35,0,0,1,2.28-.521h.005a4.785,4.785,0,0,1,3.911,1.868l.285.405-.411.293a3.249,3.249,0,0,0-1.657,2.693,3.039,3.039,0,0,0,1.794,2.81c.257.146.523.3.523.627,0,.215-1.817,4.837-4.456,4.837a3.75,3.75,0,0,1-1.5-.345,3.194,3.194,0,0,0-1.339-.3,3.6,3.6,0,0,0-1.061.271,5.444,5.444,0,0,1-1.839.406Z" transform="translate(-46.022 -114.123)"/><path d="M258.281,0c.061,2.213-1.521,3.749-3.1,3.652A3.527,3.527,0,0,1,258.281,0Z" transform="translate(-247.301)"/></svg>