<svg xmlns="http://www.w3.org/2000/svg" width="17.466" height="13.423" viewBox="0 0 17.466 13.423"><defs><style>.a{fill:#fff;stroke:#fff;stroke-width:0.5px;}</style></defs><g transform="translate(0.25 0.25)"><path class="a" d="M15.475,61H1.491A1.494,1.494,0,0,0,0,62.491v9.941a1.494,1.494,0,0,0,1.491,1.491H15.475a1.494,1.494,0,0,0,1.491-1.491V62.491A1.494,1.494,0,0,0,15.475,61Zm-.206.994L8.515,68.749,1.7,61.994ZM.994,72.226V62.692l4.788,4.747Zm.7.7,4.791-4.791L8.166,69.8a.5.5,0,0,0,.7,0L10.5,68.165l4.765,4.765Zm14.275-.7-4.765-4.765L15.972,62.7Z" transform="translate(0 -61)"/></g></svg>