<svg xmlns="http://www.w3.org/2000/svg" width="18.25" height="18.25" viewBox="0 0 18.25 18.25"><defs><style>.a{fill:#167ee6;}.b{fill:#12b347;}.c{fill:#0f993e;}.d{fill:#ffd500;}.e{fill:#ff4b26;}.f{fill:#d93f21;}</style></defs><path class="a" d="M275.17,211.479h-7.444a.6.6,0,0,0-.6.6v2.378a.6.6,0,0,0,.6.6h4.192a5.6,5.6,0,0,1-2.409,2.823l1.787,3.094a8.948,8.948,0,0,0,4.563-7.825,6.032,6.032,0,0,0-.1-1.169A.6.6,0,0,0,275.17,211.479Z" transform="translate(-257.609 -203.941)"/><path class="b" d="M42.309,336.627a5.553,5.553,0,0,1-4.8-2.78l-3.094,1.783a9.118,9.118,0,0,0,12.461,3.344v0l-1.787-3.094A5.513,5.513,0,0,1,42.309,336.627Z" transform="translate(-33.184 -321.947)"/><path class="c" d="M260.563,393.878v0l-1.787-3.094a5.513,5.513,0,0,1-2.775.75V395.1A9.109,9.109,0,0,0,260.563,393.878Z" transform="translate(-246.875 -376.85)"/><path class="d" d="M3.571,132.677a5.513,5.513,0,0,1,.75-2.775l-3.094-1.783a9.083,9.083,0,0,0,0,9.117l3.094-1.783A5.513,5.513,0,0,1,3.571,132.677Z" transform="translate(0 -123.552)"/><path class="e" d="M42.309,3.571a5.529,5.529,0,0,1,3.526,1.266.593.593,0,0,0,.8-.036l1.685-1.685a.6.6,0,0,0-.034-.877A9.105,9.105,0,0,0,34.411,4.567L37.505,6.35A5.553,5.553,0,0,1,42.309,3.571Z" transform="translate(-33.184)"/><path class="f" d="M259.526,4.837a.593.593,0,0,0,.8-.036l1.685-1.685a.6.6,0,0,0-.034-.877A9.1,9.1,0,0,0,256,0V3.571A5.529,5.529,0,0,1,259.526,4.837Z" transform="translate(-246.875)"/></svg>