<svg xmlns="http://www.w3.org/2000/svg" width="12.029" height="19.447" viewBox="0 0 12.029 19.447"><defs><style>.a{fill:#fff;}</style></defs><path class="a" d="M109.687,17.545V1.9a1.9,1.9,0,0,0-1.9-1.9H99.561a1.9,1.9,0,0,0-1.9,1.9V17.545a1.9,1.9,0,0,0,1.9,1.9h8.244a1.9,1.9,0,0,0,1.356-.573A1.831,1.831,0,0,0,109.687,17.545Zm-1.435.446a.615.615,0,0,1-.446.189H99.561a.635.635,0,0,1-.634-.634V1.9a.635.635,0,0,1,.634-.634h8.223a.635.635,0,0,1,.634.634V17.564A.583.583,0,0,1,108.251,17.99Z" transform="translate(-97.659)"/><g transform="translate(0.634 2.473)"><rect class="a" width="10.781" height="1.268"/></g><g transform="translate(0.634 14.712)"><rect class="a" width="10.781" height="1.268"/></g><g transform="translate(4.862 16.424)"><path class="a" d="M227.35,432.417h-1.057a.634.634,0,1,0,0,1.268h1.057a.634.634,0,1,0,0-1.268Z" transform="translate(-225.659 -432.417)"/></g></svg>