<svg xmlns="http://www.w3.org/2000/svg" width="15.996" height="18.864" viewBox="0 0 15.996 18.864"><defs><style>.a{fill:#fff;}</style></defs><path class="a" d="M18.013,17.669a4.323,4.323,0,0,0,.181-1.464c-.093-.309-.929-2.2-1.426-3.408a4,4,0,0,1-.266-.97c-.012-.6.775-2.131.6-3.153S15.1,6.313,15.342,6.1s2.55-.108,2.73-.353.494-.529.283-.9a14.955,14.955,0,0,0-2.362-1.445c-.106-.106-.264-1.937-1.5-1.76.387,2.448-.087,3.347-2.184,4.121-.3.3-.214,1.434-.08,1.941.493,2.715-3.4,1.514-4.632,1.532-1.26-.071-1.925-.219-3.076.542A1.461,1.461,0,0,1,2.6,9.591c-.775,1.218,1.372,1.157,1.255,1.494a3.634,3.634,0,0,0-.037,2.2,1.45,1.45,0,0,1,.135.784c-.158.51-1.408,1.735-1.408,2.373s.09,2.193.09,2.193-.1.9.1.9S3.95,19.5,4.2,19.5s-.123-.817-.629-.869c0-.194.116-2.109.116-2.109l1.486-1.786a9.06,9.06,0,0,0,.408,2.1c.237.348,1.064,1.926,1.064,1.926s-.052.661.1.661S7.759,19.4,8.07,19.4s-.07-.854-.55-.8c-.182-.285-.591-1.865-.712-2.213A9.769,9.769,0,0,1,6.672,14.3c.015-.521.538.385,2.99.369a9.478,9.478,0,0,0,3.248-.369s.534,4.1.571,4.4c.05.324-.053.674.114.674s1.162.007,1.449.007.056-.947-.615-.946a17.494,17.494,0,0,1-.234-2.261l1.07-1.965a22.269,22.269,0,0,1,1.887,2.122,4.288,4.288,0,0,1,.123,1.628,2.035,2.035,0,0,0-.284.428,8.163,8.163,0,0,0,.919.922c.467-.1.5-.716.39-1.064A2,2,0,0,0,18.013,17.669Z" transform="translate(-2.429 -0.669)"/><path class="a" d="M16.7,3.934c1.332-.718.391-2.24.11-2.064.153.6.069,1.55-.81,1.491s-.911-1.814.557-2.2,2.683,2.437-.24,3.388c1.914.141,2.913-.74,2.713-3.054s-5.027-1.844-5.109.764S16.151,4.181,16.7,3.934Z" transform="translate(-7.135 -0.001)"/></svg>