<svg xmlns="http://www.w3.org/2000/svg" width="21.667" height="21.667" viewBox="0 0 21.667 21.667"><defs><style>.a{fill:#fff;}</style></defs><path class="a" d="M20.82,14.9a.846.846,0,0,0,.846-.846V5.078a3.389,3.389,0,0,0-3.385-3.385h-1.1V.846a.846.846,0,1,0-1.693,0v.846H11.637V.846a.846.846,0,0,0-1.693,0v.846H6.136V.846a.846.846,0,1,0-1.693,0v.846H3.385A3.389,3.389,0,0,0,0,5.078v13.2a3.389,3.389,0,0,0,3.385,3.385h14.9a3.389,3.389,0,0,0,3.385-3.385.846.846,0,0,0-1.693,0,1.7,1.7,0,0,1-1.693,1.693H3.385a1.7,1.7,0,0,1-1.693-1.693V5.078A1.7,1.7,0,0,1,3.385,3.385H4.443v.846a.846.846,0,0,0,1.693,0V3.385H9.945v.846a.846.846,0,0,0,1.693,0V3.385h3.851v.846a.846.846,0,1,0,1.693,0V3.385h1.1a1.7,1.7,0,0,1,1.693,1.693v8.971A.846.846,0,0,0,20.82,14.9Z"/><g transform="translate(4.433 8.048)"><g transform="translate(0 0)"><circle class="a" cx="0.842" cy="0.842" r="0.842"/></g></g><g transform="translate(11.812 8.048)"><g transform="translate(0 0)"><circle class="a" cx="0.842" cy="0.842" r="0.842"/></g></g><g transform="translate(15.477 8.048)"><g transform="translate(0 0)"><circle class="a" cx="0.842" cy="0.842" r="0.842"/></g></g><g transform="translate(4.433 11.712)"><g transform="translate(0 0)"><circle class="a" cx="0.842" cy="0.842" r="0.842"/></g></g><g transform="translate(4.433 15.427)"><g transform="translate(0 0)"><circle class="a" cx="0.842" cy="0.842" r="0.842"/></g></g><g transform="translate(8.146 8.048)"><g transform="translate(0 0)"><circle class="a" cx="0.842" cy="0.842" r="0.842"/></g></g><g transform="translate(8.146 11.712)"><g transform="translate(0 0)"><circle class="a" cx="0.842" cy="0.842" r="0.842"/></g></g><g transform="translate(8.146 15.427)"><g transform="translate(0 0)"><circle class="a" cx="0.842" cy="0.842" r="0.842"/></g></g><g transform="translate(11.812 11.712)"><g transform="translate(0 0)"><circle class="a" cx="0.842" cy="0.842" r="0.842"/></g></g><g transform="translate(15.477 11.712)"><g transform="translate(0 0)"><circle class="a" cx="0.842" cy="0.842" r="0.842"/></g></g><g transform="translate(11.812 15.427)"><g transform="translate(0 0)"><circle class="a" cx="0.842" cy="0.842" r="0.842"/></g></g></svg>