<svg xmlns="http://www.w3.org/2000/svg" width="24" height="24" viewBox="0 0 24 24"><defs><style>.a{fill:#fff;}</style></defs><path class="a" d="M23.062,16.5A.937.937,0,0,0,24,15.562V5.625a3.754,3.754,0,0,0-3.75-3.75H19.031V.937a.937.937,0,0,0-1.875,0v.937H12.891V.937a.937.937,0,0,0-1.875,0v.937H6.8V.937a.937.937,0,1,0-1.875,0v.937H3.75A3.754,3.754,0,0,0,0,5.625V20.25A3.754,3.754,0,0,0,3.75,24h16.5A3.754,3.754,0,0,0,24,20.25a.938.938,0,0,0-1.875,0,1.877,1.877,0,0,1-1.875,1.875H3.75A1.877,1.877,0,0,1,1.875,20.25V5.625A1.877,1.877,0,0,1,3.75,3.75H4.922v.938a.937.937,0,0,0,1.875,0V3.75h4.219v.938a.938.938,0,0,0,1.875,0V3.75h4.266v.938a.938.938,0,0,0,1.875,0V3.75H20.25a1.877,1.877,0,0,1,1.875,1.875v9.937A.937.937,0,0,0,23.062,16.5Z"/><g transform="translate(4.909 8.914)"><g transform="translate(0 0)"><circle class="a" cx="0.933" cy="0.933" r="0.933"/></g></g><g transform="translate(13.083 8.914)"><g transform="translate(0 0)"><circle class="a" cx="0.933" cy="0.933" r="0.933"/></g></g><g transform="translate(17.143 8.914)"><g transform="translate(0 0)"><circle class="a" cx="0.933" cy="0.933" r="0.933"/></g></g><g transform="translate(4.909 12.974)"><g transform="translate(0 0)"><circle class="a" cx="0.933" cy="0.933" r="0.933"/></g></g><g transform="translate(4.909 17.088)"><g transform="translate(0 0)"><circle class="a" cx="0.933" cy="0.933" r="0.933"/></g></g><g transform="translate(9.023 8.914)"><g transform="translate(0 0)"><circle class="a" cx="0.933" cy="0.933" r="0.933"/></g></g><g transform="translate(9.023 12.974)"><g transform="translate(0 0)"><circle class="a" cx="0.933" cy="0.933" r="0.933"/></g></g><g transform="translate(9.023 17.088)"><g transform="translate(0 0)"><circle class="a" cx="0.933" cy="0.933" r="0.933"/></g></g><g transform="translate(13.083 12.974)"><g transform="translate(0 0)"><circle class="a" cx="0.933" cy="0.933" r="0.933"/></g></g><g transform="translate(17.143 12.974)"><g transform="translate(0 0)"><circle class="a" cx="0.933" cy="0.933" r="0.933"/></g></g><g transform="translate(13.083 17.088)"><g transform="translate(0 0)"><circle class="a" cx="0.933" cy="0.933" r="0.933"/></g></g></svg>