<svg xmlns="http://www.w3.org/2000/svg" width="22.721" height="28.713" viewBox="0 0 22.721 28.713"><defs><style>.a{fill:#fff;opacity:0.5;}</style></defs><path class="a" d="M11.361,28.713A4.34,4.34,0,0,1,7.03,24.437H.864A.855.855,0,0,1,.02,23.78a.814.814,0,0,1,.449-.93A4.486,4.486,0,0,0,1.825,21c1.168-2.472,1.413-5.954,1.413-8.44a8.157,8.157,0,0,1,4.8-7.421V3.2A3.2,3.2,0,0,1,11.228,0h.265a3.185,3.185,0,0,1,1.583.421,9.1,9.1,0,0,0-.752,1.514,1.5,1.5,0,0,0-.831-.25h-.265A1.514,1.514,0,0,0,9.717,3.2V4.6a8.111,8.111,0,0,1,1.643-.168c.13,0,.261,0,.391.009-.021.251-.032.51-.032.77,0,.306.015.615.046.918-.129-.008-.265-.013-.4-.013a6.452,6.452,0,0,0-6.439,6.45c0,4.024-.572,7.191-1.7,9.415a8.87,8.87,0,0,1-.441.774H19.94a8.886,8.886,0,0,1-.441-.774,19.75,19.75,0,0,1-1.68-8.166,9.079,9.079,0,0,0,1.7.416A18.213,18.213,0,0,0,20.9,21a4.47,4.47,0,0,0,1.356,1.847.813.813,0,0,1,.449.93.855.855,0,0,1-.844.658H15.691a4.34,4.34,0,0,1-4.33,4.275ZM8.712,24.437a2.649,2.649,0,0,0,5.3,0Z"/></svg>