<svg xmlns="http://www.w3.org/2000/svg" width="22.72" height="28.713" viewBox="0 0 22.72 28.713"><defs><style>.a{fill:#fff;opacity:0.5;}</style></defs><path class="a" d="M75.685,22.85A4.461,4.461,0,0,1,74.329,21c-1.168-2.472-1.413-5.955-1.413-8.441,0-.011,0-.022,0-.032a8.147,8.147,0,0,0-4.8-7.389V3.2A3.2,3.2,0,0,0,64.926,0h-.265a3.2,3.2,0,0,0-3.193,3.2V5.142a8.147,8.147,0,0,0-4.8,7.421c0,2.486-.245,5.968-1.413,8.441A4.461,4.461,0,0,1,53.9,22.85a.818.818,0,0,0-.449.93.856.856,0,0,0,.844.657h6.166a4.331,4.331,0,0,0,8.661,0H75.29a.856.856,0,0,0,.844-.657A.818.818,0,0,0,75.685,22.85ZM63.151,3.2a1.514,1.514,0,0,1,1.511-1.513h.265A1.514,1.514,0,0,1,66.437,3.2V4.6a8.147,8.147,0,0,0-3.286,0V3.2Zm1.643,23.829a2.654,2.654,0,0,1-2.648-2.59h5.3A2.654,2.654,0,0,1,64.794,27.028Zm3.387-4.275H56.215a8.814,8.814,0,0,0,.441-.774c1.127-2.223,1.7-5.391,1.7-9.415a6.439,6.439,0,1,1,12.878,0c0,.01,0,.021,0,.031,0,4.008.575,7.164,1.7,9.381a8.82,8.82,0,0,0,.441.774Z" transform="translate(-53.434 0)"/></svg>