<svg xmlns="http://www.w3.org/2000/svg" width="22.75" height="22.75" viewBox="0 0 22.75 22.75"><defs><style>.a{fill:#b78ec5;}</style></defs><path class="a" d="M11.375,0A11.375,11.375,0,1,0,22.75,11.375,11.375,11.375,0,0,0,11.375,0Zm0,18.74A7.366,7.366,0,0,1,9.416,4.274a2,2,0,0,1,3.918,0A7.366,7.366,0,0,1,11.375,18.74Z"/><circle class="a" cx="0.667" cy="0.667" r="0.667" transform="translate(10.709 4.01)"/><circle class="a" cx="2.5" cy="2.5" r="2.5" transform="translate(9 9)"/><path class="a" d="M128.051,126.191a2,2,0,0,1-3.538,0,6.032,6.032,0,1,0,3.538,0Zm-1.769,9.145a3.377,3.377,0,1,1,3.377-3.377A3.381,3.381,0,0,1,126.282,135.336Z" transform="translate(-114.907 -120.584)"/></svg>