<svg xmlns="http://www.w3.org/2000/svg" width="22" height="22" viewBox="0 0 22 22"><defs><style>.a{fill:#d04eff;}</style></defs><g transform="translate(0.923 0.902)"><path class="a" d="M210.48,214.577a.645.645,0,0,1,0-1.289H214.2a10.013,10.013,0,0,0,2.118-3.867h-1.544a.645.645,0,0,1,0-1.289H216.6a10.238,10.238,0,0,0,.111-1.5,9.957,9.957,0,0,0-.249-2.217A43.594,43.594,0,0,1,204.4,216.476a10.072,10.072,0,0,0,8.446-1.9Zm2.148-3.867a.645.645,0,1,1-.645.645A.645.645,0,0,1,212.628,210.71Z" transform="translate(-196.536 -196.53)"/><path class="a" d="M38.71,23.967a10.1,10.1,0,0,0-14.289-.01q-.234.234-.449.48h2.863a.645.645,0,1,1,0,1.289H23.007a9.981,9.981,0,0,0-.865,1.719h3.4a.645.645,0,0,1,0,1.289h-3.8a10.118,10.118,0,0,0-.256,1.719h3.2a.645.645,0,0,1,0,1.289h-3.2a10.118,10.118,0,0,0,.256,1.719h3.375a.645.645,0,1,1,0,1.289H22.142a10.076,10.076,0,0,0,2.289,3.5.645.645,0,0,0,.739.122,30.648,30.648,0,0,0,7.752-5.91,30.649,30.649,0,0,0,5.91-7.752A.645.645,0,0,0,38.71,23.967ZM28.554,31.742A.645.645,0,1,1,29.2,31.1.645.645,0,0,1,28.554,31.742ZM30.7,25.3a.645.645,0,1,1,.645-.645A.645.645,0,0,1,30.7,25.3Zm2.578,2.148a.645.645,0,1,1,.645-.645A.645.645,0,0,1,33.281,27.445Z" transform="translate(-21.485 -21)"/></g><path class="a" d="M21.349.65A2.985,2.985,0,0,0,18.456.133,10.558,10.558,0,0,0,16.285.91a11.426,11.426,0,0,1,2.775,2.05,1.934,1.934,0,0,1,.367,2.217,31.96,31.96,0,0,1-6.156,8.1,31.959,31.959,0,0,1-8.1,6.156,1.944,1.944,0,0,1-.852.2,1.921,1.921,0,0,1-1.366-.565,11.372,11.372,0,0,1-2.05-2.776,10.561,10.561,0,0,0-.777,2.171A2.985,2.985,0,0,0,.65,21.35c1.045,1.045,3.053.827,5.808-.631A35.728,35.728,0,0,0,14.5,14.5a35.728,35.728,0,0,0,6.218-8.042C22.176,3.7,22.395,1.7,21.349.65Z" transform="translate(0 0)"/></svg>