<svg xmlns="http://www.w3.org/2000/svg" width="25.08" height="25.08" viewBox="0 0 25.08 25.08"><defs><style>.a{fill:#328aee;}</style></defs><g transform="translate(3.367 3.367)"><path class="a" d="M54.815,53.338,53.338,51.86a1.045,1.045,0,0,0-1.478,1.478l1.478,1.478a1.045,1.045,0,0,0,1.478-1.478Z" transform="translate(-51.554 -51.554)"/></g><g transform="translate(0 11.495)"><path class="a" d="M3.135,176H1.045a1.045,1.045,0,0,0,0,2.09h2.09a1.045,1.045,0,0,0,0-2.09Z" transform="translate(0 -176)"/></g><g transform="translate(3.367 18.146)"><path class="a" d="M54.815,278.132a1.045,1.045,0,0,0-1.478,0L51.86,279.61a1.045,1.045,0,1,0,1.478,1.478l1.478-1.478A1.045,1.045,0,0,0,54.815,278.132Z" transform="translate(-51.554 -277.826)"/></g><g transform="translate(11.495 20.9)"><path class="a" d="M177.045,320A1.045,1.045,0,0,0,176,321.045v2.09a1.045,1.045,0,1,0,2.09,0v-2.09A1.045,1.045,0,0,0,177.045,320Z" transform="translate(-176 -320)"/></g><g transform="translate(18.146 18.146)"><path class="a" d="M281.087,279.61l-1.478-1.478a1.045,1.045,0,1,0-1.478,1.478l1.478,1.478a1.045,1.045,0,1,0,1.478-1.478Z" transform="translate(-277.826 -277.826)"/></g><g transform="translate(20.9 11.495)"><path class="a" d="M323.135,176h-2.09a1.045,1.045,0,1,0,0,2.09h2.09a1.045,1.045,0,1,0,0-2.09Z" transform="translate(-320 -176)"/></g><g transform="translate(18.146 3.367)"><path class="a" d="M281.087,51.86a1.045,1.045,0,0,0-1.478,0l-1.478,1.478a1.045,1.045,0,1,0,1.478,1.478l1.478-1.478A1.045,1.045,0,0,0,281.087,51.86Z" transform="translate(-277.826 -51.554)"/></g><g transform="translate(11.495)"><path class="a" d="M177.045,0A1.045,1.045,0,0,0,176,1.045v2.09a1.045,1.045,0,0,0,2.09,0V1.045A1.045,1.045,0,0,0,177.045,0Z" transform="translate(-176)"/></g><g transform="translate(5.747 5.748)"><path class="a" d="M94.793,88a6.793,6.793,0,1,0,6.793,6.793A6.8,6.8,0,0,0,94.793,88Zm0,11.5a4.7,4.7,0,1,1,4.7-4.7A4.708,4.708,0,0,1,94.793,99.5Z" transform="translate(-88 -88)"/></g></svg>