<svg xmlns="http://www.w3.org/2000/svg" xmlns:xlink="http://www.w3.org/1999/xlink" width="375" height="244" viewBox="0 0 375 244"><defs><style>.a{fill:#fff;stroke:#707070;}.b{clip-path:url(#a);}.c,.d{opacity:0.42;}.c{fill:url(#b);}.d{fill:url(#c);}</style><clipPath id="a"><rect class="a" width="375" height="244"/></clipPath><linearGradient id="b" x1="0.5" x2="0.5" y2="1" gradientUnits="objectBoundingBox"><stop offset="0" stop-color="#9bb2e4"/><stop offset="1" stop-color="#4976d6"/></linearGradient><linearGradient id="c" x1="0.5" x2="0.5" y2="1" gradientUnits="objectBoundingBox"><stop offset="0" stop-color="#d4a9ec"/><stop offset="1" stop-color="#b342f2"/></linearGradient></defs><g class="b"><path class="c" d="M30.518,7.568s-72.875,168.5,20.691,190.123,71.7,180.857,138.091,191.657,137.705-40.934,148.466-3.405,51.216-64.28,69.613-133.287.048-241.951.048-241.951Z" transform="matrix(0.921, -0.391, 0.391, 0.921, -71.382, -75.098)"/><path class="d" d="M79.33-27.907c-95.409,137.591-101.4,227.243-33.242,287.361s161.245,36.408,189.572,132.616,120.582-24.081,136.373-34.634c1.169-.781,25.2-56.822,25.956-61.148C406.9,245.32,359.547,9.447,359.547,9.447Z" transform="matrix(0.921, -0.391, 0.391, 0.921, -43.786, -59.314)"/></g></svg>