<svg xmlns="http://www.w3.org/2000/svg" xmlns:xlink="http://www.w3.org/1999/xlink" width="133" height="133" viewBox="0 0 133 133"><defs><style>.a{fill:#fff;}.b{fill:#1076eb;}.c{filter:url(#a);}</style><filter id="a" x="0" y="0" width="133" height="133" filterUnits="userSpaceOnUse"><feOffset dy="10" input="SourceAlpha"/><feGaussianBlur stdDeviation="15" result="b"/><feFlood flood-opacity="0.329"/><feComposite operator="in" in2="b"/><feComposite in="SourceGraphic"/></filter></defs><g transform="translate(45 35)"><g class="c" transform="matrix(1, 0, 0, 1, -45, -35)"><circle class="a" cx="21.5" cy="21.5" r="21.5" transform="translate(45 35)"/></g><g transform="translate(14 14)"><path class="b" d="M8.874,7.636,14.715,1.8A.972.972,0,0,0,13.341.421L7.5,6.262,1.659.421A.972.972,0,0,0,.285,1.8L6.126,7.636.285,13.477a.972.972,0,1,0,1.374,1.374L7.5,9.01l5.841,5.841a.972.972,0,1,0,1.374-1.374Zm0,0" transform="translate(0 -0.136)"/></g></g></svg>