<svg xmlns="http://www.w3.org/2000/svg" xmlns:xlink="http://www.w3.org/1999/xlink" width="98" height="98" viewBox="0 0 98 98"><defs><style>.a,.c{fill:#f2f2f2;}.a{stroke:#fff;stroke-width:2px;}.b{clip-path:url(#c);}.d{fill:#fff;}.e{fill:#2f2e41;}.f{fill:#a0616a;}.g{fill:#81d2ff;}.h{fill:#3f3d56;}.i{fill:#ff6584;}.j{fill:#ffb8b8;}.k{filter:url(#a);}</style><filter id="a" x="-7.5" y="-2.5" width="113" height="113" filterUnits="userSpaceOnUse"><feOffset dy="5" input="SourceAlpha"/><feGaussianBlur stdDeviation="2.5" result="b"/><feFlood flood-opacity="0.078"/><feComposite operator="in" in2="b"/><feComposite in="SourceGraphic"/></filter><clipPath id="c"><g class="k" transform="matrix(1, 0, 0, 1, 0, 0)"><rect class="a" width="98" height="98" rx="15" transform="translate(15663 4055)"/></g></clipPath></defs><g class="b" transform="translate(-15663 -4055)"><g transform="translate(15663 4077.166)"><path class="c" d="M41.83,89.844A15.948,15.948,0,0,1,29.9,74.165a6.408,6.408,0,0,1,.481-2.606,2.95,2.95,0,0,1,1.938-1.7,3.052,3.052,0,0,1,2.657.884,8.109,8.109,0,0,1,1.6,2.418,53.636,53.636,0,0,1,5.251,16.7Z" transform="translate(-23.992 -36.617)"/><path class="d" d="M32.336,70.056l1.8,4.091,1.8,4.091c.57,1.3,1.139,2.592,1.729,3.879S38.853,84.658,39.5,85.9s1.328,2.469,2.07,3.657q.139.222.28.442c.065.1.228.007.163-.1-.757-1.18-1.454-2.4-2.108-3.636s-1.267-2.5-1.856-3.776-1.162-2.57-1.73-3.86L34.523,74.56l-1.8-4.091-.224-.509c-.049-.111-.211-.015-.163.1Z" transform="translate(-24.437 -36.636)"/><path class="c" d="M41.146,92.552a9.332,9.332,0,0,1-10.426-4.92,3.75,3.75,0,0,1-.454-1.483,1.726,1.726,0,0,1,.548-1.4,1.786,1.786,0,0,1,1.618-.258,4.745,4.745,0,0,1,1.482.824,31.387,31.387,0,0,1,7.235,7.254Z" transform="translate(-24.059 -39.297)"/><path class="d" d="M30.717,85.051l2.039,1.638L34.8,88.327c.646.519,1.291,1.038,1.945,1.547s1.3,1,1.974,1.472,1.356.923,2.062,1.34l.265.154c.061.035.121-.058.059-.093-.711-.408-1.4-.852-2.076-1.319s-1.333-.958-1.983-1.46-1.3-1.02-1.941-1.537L33.069,86.8l-2.039-1.638-.254-.2c-.055-.044-.114.049-.059.093Z" transform="translate(-24.138 -39.396)"/><path class="c" d="M121.9,87.941a22.24,22.24,0,0,0,16.636-21.865,8.937,8.937,0,0,0-.671-3.634,4.113,4.113,0,0,0-2.7-2.367,4.256,4.256,0,0,0-3.7,1.233,11.309,11.309,0,0,0-2.227,3.372,74.8,74.8,0,0,0-7.323,23.292Z" transform="translate(-40.88 -34.817)"/><path class="d" d="M135.838,60.346l-2.511,5.7-2.51,5.7c-.8,1.807-1.589,3.614-2.411,5.409-.815,1.779-1.657,3.546-2.556,5.284s-1.852,3.443-2.887,5.1q-.193.31-.391.617c-.091.142-.318.01-.227-.133,1.055-1.645,2.028-3.342,2.94-5.07s1.766-3.491,2.588-5.266,1.621-3.584,2.413-5.384l2.5-5.684,2.511-5.7.312-.71c.068-.154.294-.021.227.133Z" transform="translate(-40.958 -34.843)"/><path class="c" d="M123.18,91.717a13.014,13.014,0,0,0,14.54-6.861,5.229,5.229,0,0,0,.633-2.068,2.407,2.407,0,0,0-.764-1.959,2.491,2.491,0,0,0-2.256-.36,6.619,6.619,0,0,0-2.067,1.149,43.769,43.769,0,0,0-10.09,10.116Z" transform="translate(-41.115 -38.553)"/><path class="d" d="M137.866,81.257l-2.844,2.284-2.844,2.284c-.9.723-1.8,1.447-2.712,2.157s-1.818,1.393-2.753,2.053-1.891,1.288-2.876,1.869q-.184.109-.369.215c-.086.049-.168-.081-.082-.13.992-.569,1.955-1.188,2.9-1.839s1.86-1.336,2.766-2.036,1.809-1.423,2.706-2.144l2.833-2.276,2.844-2.284.354-.284c.077-.062.158.069.082.13Z" transform="translate(-41.147 -38.692)"/><path class="e" d="M50.523,49.3h0l-.938.784-6.451,1.433a1.631,1.631,0,1,0,1.223,3.024l4.109-.692a5.041,5.041,0,0,0,.673-.16c.087-.026.172-.055.256-.085a26.244,26.244,0,0,1,1.532-4.641Z" transform="translate(-26.234 -32.791)"/><path class="f" d="M116.786,52.756l-.894-.006-.478,0-2.739-4.788a1.34,1.34,0,0,0,.06-.154,1.217,1.217,0,0,0-1.265-1.574,1.107,1.107,0,0,0-.259.03,26.346,26.346,0,0,1,2.989,8.792,1.53,1.53,0,0,0,.237.047,5.069,5.069,0,0,0,1.253-.043,10,10,0,0,1,1.367-.15Z" transform="translate(-38.918 -32.29)"/><path class="g" d="M120.723,54.231l-3.287-.457a.507.507,0,0,0-.556.36.518.518,0,0,0-.016.072L116.6,56.1a.509.509,0,0,0,.431.571l3.287.457a1.462,1.462,0,0,0,.4-2.9Z" transform="translate(-39.907 -33.673)"/><path class="h" d="M103.188,51.967a26.463,26.463,0,0,0-2.967-8.869,26.8,26.8,0,0,0-48.263,2.565h0a26.391,26.391,0,0,0-1.385,4.389,26.771,26.771,0,1,0,52.614,1.914ZM76.7,82.458A26.563,26.563,0,1,1,103.25,55.912,26.576,26.576,0,0,1,76.7,82.458Z" transform="translate(-27.67 -29.155)"/><path class="h" d="M70.816,56.093a5.623,5.623,0,1,1,3.951-1.621A5.623,5.623,0,0,1,70.816,56.093Zm0-11.023a5.4,5.4,0,1,0,5.4,5.4A5.4,5.4,0,0,0,70.816,45.07Z" transform="translate(-30.471 -32.035)"/><path class="h" d="M92.033,56.093a5.624,5.624,0,1,1,5.624-5.624A5.624,5.624,0,0,1,92.033,56.093Zm0-11.023a5.4,5.4,0,1,0,5.4,5.4A5.4,5.4,0,0,0,92.033,45.07Z" transform="translate(-34.365 -32.035)"/><path class="h" d="M75.081,55.986a5.513,5.513,0,0,1-7.743,0,4.276,4.276,0,0,1,7.743,0Z" transform="translate(-30.865 -33.628)"/><path class="h" d="M96.3,55.986a5.513,5.513,0,0,1-7.743,0,4.276,4.276,0,0,1,7.743,0Z" transform="translate(-34.759 -33.628)"/><path class="h" d="M78.28,62.778c0-.621,2.014-1.125,4.5-1.125s4.5.5,4.5,1.125-2.014,2.925-4.5,2.925S78.28,63.4,78.28,62.778Z" transform="translate(-32.873 -35.12)"/><circle class="i" cx="1.912" cy="1.912" r="1.912" transform="translate(32.978 23.665)"/><circle class="i" cx="1.912" cy="1.912" r="1.912" transform="translate(61.267 23.721)"/><path class="j" d="M27.26,62.643h1.379l.656-5.319H27.259Z" transform="translate(-5.004 -10.536)"/><path class="e" d="M0,0H4.334V1.675H1.675A1.675,1.675,0,0,1,0,0Z" transform="translate(26.294 53.612) rotate(179.997)"/><path class="j" d="M18.855,62.643h1.379l.656-5.319H18.855Z" transform="translate(-3.461 -10.536)"/><path class="e" d="M0,0H4.334V1.675H1.675A1.675,1.675,0,0,1,0,0Z" transform="translate(19.432 53.612) rotate(179.997)"/><path class="e" d="M48.694,66.424l1.212,9.6q.25,1.981.35,3.976l.327,6.532a.45.45,0,0,1-.449.472h-1.84a.45.45,0,0,1-.445-.382l-1.655-10.9a.225.225,0,0,0-.444-.008L43.757,86.394a.45.45,0,0,1-.408.358l-1.693.107a.45.45,0,0,1-.483-.463l.547-17.5Z" transform="translate(-26.061 -35.996)"/><circle class="j" cx="2.763" cy="2.763" r="2.763" transform="translate(14.499 11.223)"/><path class="g" d="M40.81,66.251c.675,1.575,3.6,2.7,4.274.45.522-1.739,2.589-2.47,3.5-2.712a.452.452,0,0,0,.322-.547l-2.55-10.017a3.518,3.518,0,0,0-6.876.265,15.429,15.429,0,0,0-.179,1.773A33.834,33.834,0,0,0,40.81,66.251Z" transform="translate(-25.714 -33.123)"/><path class="j" d="M58.673,58.633A1.131,1.131,0,0,0,57,59.094l-4-.377.981,1.844,3.65.076a1.137,1.137,0,0,0,1.043-2Z" transform="translate(-28.232 -34.529)"/><path class="e" d="M54.585,59.6a.507.507,0,0,1-.377.168l-5.224-.119a5.216,5.216,0,0,1-3.436-1.3l-3.132-2.747a1.631,1.631,0,0,1,1.57-2.859l5.187,4.093,5.051.973a.508.508,0,0,1,.384.437l.1.955a.507.507,0,0,1-.059.3.5.5,0,0,1-.068.1Z" transform="translate(-26.134 -33.45)"/><path class="e" d="M40.928,47.689a.451.451,0,0,0,.664-.266l0-.006a2.155,2.155,0,0,0-.006-.644.807.807,0,0,1,.153-.61c.273-.295.759-.139,1.154-.213a.975.975,0,0,0,.758-1.041c-.006-.045-.014-.089-.024-.134a.751.751,0,0,1,.779-.909c.4.023.83.144,1.16-.152a.856.856,0,0,0,.205-.923,1.737,1.737,0,0,0-1.249-.986,4.569,4.569,0,0,0-3.873.635,2.051,2.051,0,0,0-.786.912,1,1,0,0,0,.247,1.116,2.062,2.062,0,0,0-.478,2C39.793,46.982,40.547,47.47,40.928,47.689Z" transform="translate(-25.763 -31.444)"/><path class="f" d="M91.042,62.617H89.663L89.007,57.3h2.035Z" transform="translate(-16.339 -10.531)"/><path class="e" d="M88.227,63.606h2.66V65.28H86.553A1.674,1.674,0,0,1,88.227,63.606Z" transform="translate(-15.888 -11.689)"/><path class="f" d="M103.028,62.617h-1.379l-.656-5.319h2.035Z" transform="translate(-18.539 -10.531)"/><path class="e" d="M100.214,63.606h2.66V65.28H98.539a1.674,1.674,0,0,1,1.675-1.674Z" transform="translate(-18.089 -11.689)"/><path class="e" d="M113.626,83.776l-.045,0-1.952-.156a.562.562,0,0,1-.51-.65l2.959-18.3.2-2.582a.559.559,0,0,1,.44-.506l2.976-.651a.559.559,0,0,1,.584.232L119,62.218a12.417,12.417,0,0,0,.927,1.182,6.352,6.352,0,0,1,1.469,4.02,14.241,14.241,0,0,0,.218,2.087l2.4,12.909a.562.562,0,0,1-.5.648l-1.85.14a.56.56,0,0,1-.6-.414l-3.282-12.2a.112.112,0,0,0-.217,0l-3.4,12.772a.563.563,0,0,1-.543.418Z" transform="translate(-38.9 -34.984)"/><circle class="f" cx="2.763" cy="2.763" r="2.763" transform="translate(77.154 12.121)"/><path class="g" d="M114.795,60.866l-.057-3.945a4.609,4.609,0,0,1,1.882-4.515,2.24,2.24,0,0,1,1.733-.332l2.174.47a2.292,2.292,0,0,1,1.468,1.046,2.139,2.139,0,0,1,.244,1.688,2.317,2.317,0,0,1-.945,1.294,5.052,5.052,0,0,0-2,3.556l0,.046Z" transform="translate(-39.561 -33.353)"/><path class="f" d="M106.928,59.383a1.241,1.241,0,0,1-1.856.054c-1.09-1.143.692-2.858,1.785-1.713h0a1.2,1.2,0,0,1,.107.126l5.515-.137.658-1.2,2.023.786c-.388.6-.834,2.966-1.85,2.851C113.178,60.148,107.065,59.393,106.928,59.383Z" transform="translate(-37.729 -34.176)"/><path class="g" d="M116.065,57.764l-1.542-1.131a.507.507,0,0,1-.109-.708l1.963-2.675a1.462,1.462,0,0,1,2.358,1.73l-1.963,2.675A.507.507,0,0,1,116.065,57.764Z" transform="translate(-39.488 -33.468)"/><path class="e" d="M119.137,45.8a4.51,4.51,0,0,1-1.205.208,1.52,1.52,0,0,1-1.11-.436,1.39,1.39,0,0,1-.084-1.622,2.276,2.276,0,0,1,1.412-.945,6.74,6.74,0,0,1,1.733-.127,2.15,2.15,0,0,1,2.4.051,3.406,3.406,0,0,1,1.324,2.12,8.6,8.6,0,0,1,.074,2.55c-.038.466,0,1.072.446,1.215a.8.8,0,0,0,.786-.291c.2-.216.342-.484.553-.691a1.727,1.727,0,0,1,1.762-.32,2.84,2.84,0,0,1,1.4,1.214,4.222,4.222,0,0,1-4.795,6.282,6.071,6.071,0,0,1-3.409-3.146,10.392,10.392,0,0,1-1.127-5.9Z" transform="translate(-39.892 -31.611)"/><path class="h" d="M120.523,94.806H22.776a.112.112,0,0,1,0-.225h97.747a.112.112,0,0,1,0,.225Z" transform="translate(-22.664 -41.165)"/></g></g></svg>