<svg xmlns="http://www.w3.org/2000/svg" xmlns:xlink="http://www.w3.org/1999/xlink" width="83" height="83" viewBox="0 0 83 83"><defs><style>.a{fill:#fff;stroke:#707070;}.b{clip-path:url(#c);}.c{fill:#3f3d56;}.d{opacity:0.1;}.e{fill:#71d5fb;}.f{fill:#cfcce0;}.g{fill:#f2f2f2;}.h{fill:#2f2e41;}.i{fill:#ffb9b9;}.j{filter:url(#a);}</style><filter id="a" x="-9" y="-6" width="101" height="101" filterUnits="userSpaceOnUse"><feOffset dy="3" input="SourceAlpha"/><feGaussianBlur stdDeviation="3" result="b"/><feFlood flood-opacity="0.161"/><feComposite operator="in" in2="b"/><feComposite in="SourceGraphic"/></filter><clipPath id="c"><g class="j" transform="matrix(1, 0, 0, 1, 0, 0)"><rect class="a" width="83" height="83" rx="18" transform="translate(14337 3749)"/></g></clipPath></defs><g class="b" transform="translate(-14337 -3749)"><g transform="translate(14340.407 3749)"><path class="c" d="M109.782,113.938c0,2.519-17.055,8.26-38.093,8.26S33.6,116.457,33.6,113.938s17.055-.863,38.093-.863S109.782,111.419,109.782,113.938Z" transform="translate(-33.596 -39.198)"/><path class="d" d="M109.782,113.938c0,2.519-17.055,8.26-38.093,8.26S33.6,116.457,33.6,113.938s17.055-.863,38.093-.863S109.782,111.419,109.782,113.938Z" transform="translate(-33.596 -39.198)"/><circle class="e" cx="1.603" cy="1.603" r="1.603" transform="translate(9.246 38.003)"/><circle class="e" cx="1.603" cy="1.603" r="1.603" transform="translate(16.273 51.194)"/><circle class="e" cx="1.603" cy="1.603" r="1.603" transform="translate(10.849 47.866)"/><path class="f" d="M51.89,96.9a8.778,8.778,0,0,1-.927-3.473,24.078,24.078,0,0,1,1.779-10.688,21.554,21.554,0,0,0-.854-17.154l.213-.124a18.931,18.931,0,0,1,1.786,5.06,22.074,22.074,0,0,1-.914,12.3c-3.508,9.436-.9,13.9-.873,13.947Z" transform="translate(-38.928 -24.68)"/><path class="f" d="M49.58,63.473a1.726,1.726,0,1,1,1.726-1.726A1.726,1.726,0,0,1,49.58,63.473Zm0-3.205a1.479,1.479,0,1,0,1.479,1.479,1.479,1.479,0,0,0-1.479-1.479Z" transform="translate(-37.992 -23.004)"/><circle class="f" cx="1.603" cy="1.603" r="1.603" transform="translate(15.04 43.058)"/><path class="f" d="M51.9,77.732a1.726,1.726,0,1,1,1.726-1.726A1.726,1.726,0,0,1,51.9,77.732Zm0-3.205a1.479,1.479,0,1,0,1.479,1.479A1.479,1.479,0,0,0,51.9,74.526Z" transform="translate(-38.707 -27.401)"/><path class="f" d="M57.957,82.544a1.726,1.726,0,1,1,1.726-1.726,1.726,1.726,0,0,1-1.726,1.726Zm0-3.205a1.479,1.479,0,1,0,1.479,1.479,1.479,1.479,0,0,0-1.479-1.479Z" transform="translate(-40.575 -28.884)"/><circle class="f" cx="1.603" cy="1.603" r="1.603" transform="translate(10.355 55.509)"/><path class="f" d="M53.622,107.919s-1.6-3.945,3.205-6.9Z" transform="translate(-39.691 -35.644)"/><path class="f" d="M48.045,109.039s-.729-4.2-6.375-4.159Z" transform="translate(-36.085 -36.835)"/><path class="e" d="M122.36,107.061H95.082s-.553-8.11,2.719-8.2,2.9,3.594,7-1.475,9.077-4.792,9.722-1.8-1.244,5.391,2.212,4.654S125.171,101.439,122.36,107.061Z" transform="translate(-52.543 -33.307)"/><path class="g" d="M114.11,107.041l-.092,0a28.087,28.087,0,0,1,2.233-10.708,9.721,9.721,0,0,1,1.929-2.964l.061.069a9.653,9.653,0,0,0-1.91,2.941A28.012,28.012,0,0,0,114.11,107.041Z" transform="translate(-58.393 -33.285)"/><path class="g" d="M128.386,110.473l-.088-.026a14.3,14.3,0,0,1,3.6-5.988l.062.068A14.2,14.2,0,0,0,128.386,110.473Z" transform="translate(-62.795 -36.706)"/><path class="g" d="M100.231,109.567l-.091-.013a10.037,10.037,0,0,0-.9-5.867,8.077,8.077,0,0,0-1.425-2.079l.064-.067a8.179,8.179,0,0,1,1.444,2.1A10.128,10.128,0,0,1,100.231,109.567Z" transform="translate(-53.396 -35.806)"/><path class="f" d="M124.742,105.694H90.819l-.008-.115c-.02-.286-.452-7.029,1.733-9.435a2.393,2.393,0,0,1,1.749-.839,5.2,5.2,0,0,1,3.041.921c1.361.807,2.259,1.34,5.527-2.7,3.54-4.376,7.36-5.317,9.556-4.794a3.408,3.408,0,0,1,2.683,2.623,11.64,11.64,0,0,1,.115,3.39c-.074,1.016-.133,1.819.285,2.183.348.3,1.044.331,2.189.087,2.328-.5,5.577-.072,7.208,2.035.877,1.134,1.569,3.194-.121,6.573Zm-33.691-.247h33.539c1.259-2.554,1.3-4.712.113-6.244-1.5-1.933-4.635-2.442-6.962-1.945-1.244.265-1.985.222-2.4-.142-.51-.445-.448-1.3-.369-2.387a11.435,11.435,0,0,0-.11-3.321,3.17,3.17,0,0,0-2.5-2.435c-2.126-.507-5.839.422-9.307,4.709-3.4,4.2-4.427,3.6-5.845,2.756a4.943,4.943,0,0,0-2.908-.887,2.155,2.155,0,0,0-1.573.758c-1.964,2.162-1.724,8.226-1.676,9.137Z" transform="translate(-51.223 -31.817)"/><ellipse class="c" cx="38.093" cy="4.561" rx="38.093" ry="4.561" transform="translate(0 70.179)"/><path class="h" d="M87.092,28.083s-1.9-.68-3.129,2.04a53.648,53.648,0,0,1-3.129,5.713l1.088.272s.272-1.9.952-2.176L82.6,36.38s8.162,2.857,11.834-.272l-.136-.952s.544.136.544.952l.408-.408a7.311,7.311,0,0,0-1.632-1.9,4.8,4.8,0,0,1-1.175-2.923,3.629,3.629,0,0,0-5.355-2.79Z" transform="translate(-48.161 -13.012)"/><path class="i" d="M84.229,35.685,82.257,33.22l-1.479-5.054,5.671-6.041s1.233-4.685.123-4.438-1.356,3.7-1.356,3.7l-7.15,5.548S78.8,34.7,80.9,37.411l1.6,5.054Z" transform="translate(-47.307 -9.948)"/><path class="i" d="M93.568,35.685l1.972-2.466,1.479-5.054-5.671-6.041s-1.233-4.685-.123-4.438,1.356,3.7,1.356,3.7l7.15,5.548S98.993,34.7,96.9,37.411l-1.6,5.054Z" transform="translate(-51.222 -9.948)"/><circle class="i" cx="3.205" cy="3.205" r="3.205" transform="translate(36.429 17.231)"/><path class="i" d="M88.211,38.544s.123,2.589-.616,3.452-1.479,5.3,2.1,5.424,3.205-3.7,3.205-3.7l-.74-2.1a4.426,4.426,0,0,1-.74-3.082Z" transform="translate(-50.057 -16.382)"/><path class="i" d="M83.782,80.073l2.65.8s2.157-1.294,2.157-.062-.74,2.835-.493,3.945.74,3.822,0,3.822-2.219-4.808-2.219-4.808l-2.466-1.356Z" transform="translate(-48.956 -29.187)"/><path class="i" d="M88.148,105.025l-.986,3.822s-.863,1.109,0,1.6a2.5,2.5,0,0,1,.9,1.147,2.109,2.109,0,0,0,2.07,1.253.832.832,0,0,0,.861-.634.992.992,0,0,0-.191-.777,6.66,6.66,0,0,1-1.116-2.037l.37-4.315Z" transform="translate(-49.994 -36.88)"/><path class="h" d="M85.247,34.871a5.54,5.54,0,0,1,2.04-1.768c.952-.272,1.088-1.632,1.088-1.632s2.449,2.721,3.945,2.857.136-3.265.136-3.265l-2.721-.68-2.585.272-2.04,1.36Z" transform="translate(-49.48 -13.865)"/><path class="h" d="M77.206,65.942l-.493.986s-11.958,3.822-10.972,7.4,6.534,2.589,6.534,2.589l6.164,1.109.616-2.712L74.74,74.2l7.4-2.712.247,12.574-.986,9,2.466.247s2.712-8.26,2.342-11.711c0,0,4.561-14.054,1.972-16.149S77.206,65.942,77.206,65.942Z" transform="translate(-43.489 -24.425)"/><path class="f" d="M88.185,44.927,86.261,42.6l-1.3.6L83.6,47.514a4.581,4.581,0,0,0,.247,4.315s.247,1.479-.123,1.849-.493,2.712-.493,2.712l-1.6,3.082s9.123,1.6,11.835-.616c0,0-1.423-5.247-.56-6.85s.986-4.059,0-5.169a16.813,16.813,0,0,1-2.029-4.008l-.6-.382Z" transform="translate(-48.406 -17.586)"/><path class="f" d="M66.807,12.392H65.624V11.21h-.107v1.182H64.334V12.5h1.182v1.182h.107V12.5h1.182Z" transform="translate(-19.836 -3.456)"/><path class="f" d="M50.56,8.818H49.378V7.636h-.107V8.818H48.088v.107h1.182v1.182h.107V8.925H50.56Z" transform="translate(-14.827 -2.354)"/><path class="f" d="M58.359,1.182H57.176V0h-.108V1.182H55.886V1.29h1.182V2.472h.108V1.29h1.182Z" transform="translate(-17.232)"/></g></g></svg>