<svg xmlns="http://www.w3.org/2000/svg" xmlns:xlink="http://www.w3.org/1999/xlink" width="95" height="95" viewBox="0 0 95 95"><defs><style>.a{fill:#f2f2f2;stroke:#fff;stroke-width:2px;}.b{clip-path:url(#c);}.c{fill:#2f2e41;}.d{fill:#81d2ff;}.e{fill:#ffb8b8;}.f{opacity:0.1;}.g{fill:#fff;}.h{fill:#a0616a;}.i{fill:#3f3d56;}.j{filter:url(#a);}</style><filter id="a" x="-7.5" y="-2.5" width="110" height="110" filterUnits="userSpaceOnUse"><feOffset dy="5" input="SourceAlpha"/><feGaussianBlur stdDeviation="2.5" result="b"/><feFlood flood-opacity="0.078"/><feComposite operator="in" in2="b"/><feComposite in="SourceGraphic"/></filter><clipPath id="c"><g class="j" transform="matrix(1, 0, 0, 1, 0, 0)"><rect class="a" width="95" height="95" rx="15" transform="translate(15685 3784)"/></g></clipPath></defs><g class="b" transform="translate(-15685 -3784)"><g transform="translate(15685 3798.094)"><path class="c" d="M106.972,83.013a5.174,5.174,0,0,1-1.4-.193L86.7,77.767l.055-.2,18.879,5.053a4.968,4.968,0,0,0,1.342.185,4.814,4.814,0,0,0,4.792-3.426L125.2,31.456h0l.029-.1a4.981,4.981,0,0,0-3.448-6.128L91.438,16.714A4.981,4.981,0,0,0,85.3,20.161L84.25,23.922l-.2-.056,1.054-3.761a5.187,5.187,0,0,1,6.388-3.59l30.346,8.509a5.188,5.188,0,0,1,3.617,6.288h0l-.028.1L111.962,79.437A5.02,5.02,0,0,1,106.972,83.013Z" transform="translate(-31.9 -16.323)"/><path class="d" d="M67.578,9.554l.346.1,1.063.3.111-.4-.4-.111.35-1.247.841-.73.224,2.374L69.5,9.663l-.111.4,1.588.446.111-.4-.337-.094L70.423,7l1.65-1.435.463.13.111-.4-1.59-.446-.111.4.524.146-2.1,1.649.582-2.074.4.111.111-.4-1.59-.446-.111.4.6.167L68.1,9.273l-.6-.167-.015.054-.064.231Z" transform="translate(-14.048 -0.885)"/><path class="d" d="M88.612,31.461a12.045,12.045,0,0,0-1.16.579l-.206.12V30.883a4.827,4.827,0,0,0-.193-1.356c.06-.037.121-.077.181-.118l.165-.11A13.9,13.9,0,0,0,88.612,31.461Z" transform="translate(-32.525 -19.027)"/><path class="d" d="M94.576,78.419l-.463-.13-.111.4,1.589.446.111-.4-.523-.147,2.1-1.65L96.7,79.013l-.4-.111-.111.4,1.589.446.111-.4-.6-.167,1.253-4.469.6.167.111-.4-1.589-.446-.111.4.4.111-.35,1.247-.84.73-.223-2.374.619.174.111-.4-1.589-.446-.111.4.338.095.324,3.014Z" transform="translate(-19.584 -15.31)"/><path class="d" d="M115.35,85.933a11.356,11.356,0,0,0,2.11-1.186,17.438,17.438,0,0,0,1.215,2.162,12.972,12.972,0,0,0-2.11,1.186,13.95,13.95,0,0,0-1.215-2.162Z" transform="translate(-38.421 -30.578)"/><path class="e" d="M97.59,59.117s-.522,3.389-.677,3.56A31.933,31.933,0,0,0,98,66.837l3.97-2.315a31.943,31.943,0,0,1,1.027-4.426A54.022,54.022,0,0,0,97.59,59.117Z" transform="translate(-34.577 -25.239)"/><path class="f" d="M97.59,59.117s-.522,3.389-.677,3.56A31.933,31.933,0,0,0,98,66.837l3.97-2.315a31.943,31.943,0,0,1,1.027-4.426A54.022,54.022,0,0,0,97.59,59.117Z" transform="translate(-34.577 -25.239)"/><circle class="e" cx="3.92" cy="3.92" r="3.92" transform="translate(62.165 29.321)"/><path class="g" d="M97.658,65.3l-.342-.31-1.535-2.185s-.176-.116-.343.48l-.167.6-1.442.56L90.636,78.119l8.541,2.4,3.518-13.69-1.652-1.749-.183-.844-2.551,1.041Z" transform="translate(-33.272 -26.006)"/><path class="c" d="M87.3,79.516l.206.058,13.3,3.73,4.448-14.714a5.221,5.221,0,0,0-1.875-.955S102,66.069,101.4,65.9s-1.255-1.637-1.255-1.637a14.622,14.622,0,0,1-1.893,4.075c-1.2,1.593-3.28,7.115-3.28,7.115l-.588-10.128.66-2.547a4.69,4.69,0,0,0-1.038.834,5.165,5.165,0,0,1-1.652.928s-3.127.838-3.68.9a2.278,2.278,0,0,0-.807.2L87.5,68.148,87.3,69.568Z" transform="translate(-32.576 -26.002)"/><path class="c" d="M89.112,74.565c-.124.822-1.4,4.215-1.4,4.215l-.212.214L87.3,79.2V66.636a.579.579,0,0,1,.206-.143,1.416,1.416,0,0,1,.364-.1l.4.111S89.236,73.742,89.112,74.565Z" transform="translate(-32.576 -26.755)"/><path class="e" d="M101.035,81.485s1.952-3.523,3.43-2.681-.891,3.178-.891,3.178Z" transform="translate(-35.438 -29.313)"/><path class="e" d="M92.167,80.251s-3.746-1.158-3.83-.86-1.109,2.046-.811,2.129a23.093,23.093,0,0,1,2.582.724c-.028.1,1.108.632,1.108.632Z" transform="translate(-32.612 -29.452)"/><path class="d" d="M83,49.737l-2.384.094-.5-.139-1.988-1.32-.658,1.97,2.507-.154.5.139,2.062,1.435Z" transform="translate(-16.14 -10.079)"/><path class="c" d="M74.85,68.129l-.366.78-5.261-1.444-.1-.3V65.511l.206.08.212.084Z" transform="translate(-14.4 -13.65)"/><path class="g" d="M94.094,80.753a5.882,5.882,0,0,0-1.263-.461c-.028.1-1.686,2.955-1.288,3.067s1.8.827,1.8.827Z" transform="translate(-33.448 -29.648)"/><path class="c" d="M105.813,69.87l.7.195s.4.111.429.763.571,3.7.316,3.838-.326.016-.183.27.27.183.115.354-.511,5.642-1.664,7.461-1.5,2.685-1.9,2.574l-10.3-2.888s.459-4.049.884-4.037,7.389,1.536,7.389,1.536S104.3,69.551,105.813,69.87Z" transform="translate(-33.832 -27.477)"/><path class="c" d="M98.1,52.469l-.643-.461a5.288,5.288,0,0,1,3.964-.363l-.422-.75a2.76,2.76,0,0,1,2.5,1.613,12.08,12.08,0,0,1,1.265,3.067l.767.215-.5.55.941.954-1.118-.437a3.355,3.355,0,0,1-.574,1.627l-.461.643a21.449,21.449,0,0,1-.384-2.636l-.183.651s-.552-.787-.442-1.177l-.518.346.006-.771-2.609.041.555-.476-1.552-.225.787-.552s-1.93.372-2.2,1.07a3.889,3.889,0,0,1-1.368,1.372l-.208-.761S95.942,52.917,98.1,52.469Z" transform="translate(-34.328 -23.525)"/><path class="d" d="M96.5,52.892l.031-.134c.3-1.3-1.995-3.711-2.018-3.735l-.041-.042.016-.057c.045-.162.227-.305,1.822.04.621.135,1.24.3,1.5.369A3.72,3.72,0,0,0,96.85,47.6l-.116-.122.162-.047c1.059-.31,2.3.719,2.694,1.084l.662-2.361,1.31,1.935a2.406,2.406,0,0,1,2.018-1.152l.163.009-.078.144a4.481,4.481,0,0,0-.656,2c1.466-1.742,2.788-1.59,2.845-1.583l.2.026-.139.147a8.627,8.627,0,0,0-2.148,4.731l-.007.09ZM94.74,48.966c.405.439,2.158,2.422,2.013,3.706l6.819-.371a8.913,8.913,0,0,1,2.033-4.59,3.87,3.87,0,0,0-2.6,1.7l-.127.162-.054-.2a3.432,3.432,0,0,1,.573-2.23,2.29,2.29,0,0,0-1.746,1.181l-.083.139-1.24-1.831-.636,2.269-.125-.126c-.014-.014-1.344-1.346-2.45-1.187a3.128,3.128,0,0,1,.889,1.886l-.013.121-.117-.033A12.7,12.7,0,0,0,94.74,48.966Z" transform="translate(-34.071 -22.538)"/><path class="d" d="M109.428,46.98a.37.37,0,1,1,.456-.256.37.37,0,0,1-.456.256Zm.144-.514a.164.164,0,1,0,.113.2.164.164,0,0,0-.113-.2Z" transform="translate(-37.131 -22.559)"/><path class="d" d="M106.183,46.07a.37.37,0,1,1,.456-.256A.37.37,0,0,1,106.183,46.07Zm.144-.514a.164.164,0,1,0,.113.2.164.164,0,0,0-.113-.2Z" transform="translate(-36.454 -22.369)"/><path class="d" d="M101.25,45.562a.37.37,0,1,1,.456-.256A.37.37,0,0,1,101.25,45.562Zm.144-.514a.164.164,0,1,0,.113.2.164.164,0,0,0-.113-.2Z" transform="translate(-35.427 -22.263)"/><path class="d" d="M93.374,49.3a.37.37,0,1,1,.456-.256.37.37,0,0,1-.456.256Zm.144-.514a.164.164,0,1,0,.113.2.164.164,0,0,0-.113-.2Z" transform="translate(-33.786 -23.043)"/><path class="d" d="M96.419,47.183a.37.37,0,1,1,.456-.256A.37.37,0,0,1,96.419,47.183Zm.144-.514a.164.164,0,1,0,.113.2.164.164,0,0,0-.113-.2Z" transform="translate(-34.42 -22.601)"/><path class="c" d="M88.7,61.319l-.1-.028L69.161,55.839l.056-.2,19.344,5.424,12.226-43.6L73.524,9.82,69.366,24.649l-.2-.056L73.382,9.565l.1.028,27.561,7.728-.028.1Z" transform="translate(-14.409 -1.995)"/><path class="c" d="M23.39,94.93a8.381,8.381,0,0,0,4,3.4,8.381,8.381,0,0,0-.64-5.212,8.381,8.381,0,0,0-4-3.4A8.381,8.381,0,0,0,23.39,94.93Z" transform="translate(-19.095 -31.614)"/><path class="d" d="M23.352,95.057a8.381,8.381,0,0,1,3.206,4.158,8.38,8.38,0,0,1-5.176-.884,8.381,8.381,0,0,1-3.206-4.158A8.381,8.381,0,0,1,23.352,95.057Z" transform="translate(-18.176 -32.523)"/><path class="c" d="M76.372,28.49a5.055,5.055,0,0,0-.832-1.616,5.138,5.138,0,0,0-.43-.492,5.065,5.065,0,0,0-3.6-1.5H40a5.083,5.083,0,0,0-5.078,5.078V79.841A5.083,5.083,0,0,0,40,84.919H71.513a5.083,5.083,0,0,0,5.078-5.078V29.964A5.041,5.041,0,0,0,76.372,28.49Zm.012,51.351a4.878,4.878,0,0,1-4.872,4.872H40a4.878,4.878,0,0,1-4.872-4.872V29.964A4.878,4.878,0,0,1,40,25.092H71.513a4.86,4.86,0,0,1,3.533,1.52q.076.08.149.164a4.86,4.86,0,0,1,1.19,3.187Z" transform="translate(-21.664 -18.107)"/><path class="d" d="M40.075,33.9c-.006-.013-.013-.026-.019-.039a3.125,3.125,0,0,0,.342-1.472,2.445,2.445,0,1,0-4.86,0,2.472,2.472,0,0,0,2.43,2.716,2.293,2.293,0,0,0,1.784-.8,1.971,1.971,0,0,0,1.384.843l.048-.474A1.429,1.429,0,0,1,40.075,33.9Zm-2.107.729a2.019,2.019,0,0,1-1.953-2.239,1.972,1.972,0,1,1,3.907,0,2.691,2.691,0,0,1-.218,1.094,3.71,3.71,0,0,0-2.214-.136l.1.466a3.251,3.251,0,0,1,1.874.081,1.822,1.822,0,0,1-1.494.734Z" transform="translate(-21.793 -19.104)"/><path class="d" d="M38.456,37.9a.827.827,0,1,0-1.169,1.169l1.169,1.169,1.169-1.169A.827.827,0,0,0,38.456,37.9Z" transform="translate(-22.107 -20.768)"/><path class="d" d="M80.914,90.666c.006.013.013.026.019.039a3.125,3.125,0,0,0-.342,1.472,2.445,2.445,0,1,0,2.43-2.716,2.293,2.293,0,0,0-1.784.8,1.971,1.971,0,0,0-1.384-.843l-.048.474A1.428,1.428,0,0,1,80.914,90.666Zm2.107-.729a2.26,2.26,0,1,1-1.953,2.239,2.691,2.691,0,0,1,.218-1.094,3.71,3.71,0,0,0,2.214.136l-.1-.466a3.251,3.251,0,0,1-1.874-.081,1.822,1.822,0,0,1,1.494-.734Z" transform="translate(-31.015 -31.55)"/><path class="d" d="M83.277,87.426a.827.827,0,1,0,1.169-1.169l-1.169-1.169-1.169,1.169a.827.827,0,1,0,1.169,1.169Z" transform="translate(-31.445 -30.649)"/><path class="c" d="M61.6,60.023a5.455,5.455,0,0,0-4.183-2.483s-2.707-.346-4.444,3.268c-1.619,3.368-3.853,6.621-.36,7.409l.631-1.964.391,2.11a13.671,13.671,0,0,0,1.495.026c3.741-.121,7.3.035,7.189-1.307C62.164,65.3,62.949,62.306,61.6,60.023Z" transform="translate(-24.965 -24.908)"/><path class="h" d="M57.4,70.049a1.482,1.482,0,0,1-.128.781c-.263.46-.905.528-1.292.891a2.17,2.17,0,0,0-.472,1.556A4.3,4.3,0,0,0,55.688,75a4.194,4.194,0,0,0,.49.842q.354.51.714,1.015a4.384,4.384,0,0,0,.428.537,3.642,3.642,0,0,0,1.61.854,2.012,2.012,0,0,0,1.17.077,2.239,2.239,0,0,0,.68-.418,3.644,3.644,0,0,0,.77-.746,3.474,3.474,0,0,0,.471-1.591,34.334,34.334,0,0,0,.226-4.946,1.212,1.212,0,0,0-.094-.526c-.2-.382-.72-.464-1-.792a1.584,1.584,0,0,1-.244-1.049l.005-.934a.391.391,0,0,0-.045-.228.386.386,0,0,0-.268-.125,9.034,9.034,0,0,0-1.757-.118,4.339,4.339,0,0,0-1.8.24c-.374.241.094.907.181,1.281A8.345,8.345,0,0,1,57.4,70.049Z" transform="translate(-25.952 -26.85)"/><circle class="h" cx="3.776" cy="3.776" r="3.776" transform="translate(28.771 34.044)"/><path class="g" d="M56.4,75.232a5.524,5.524,0,0,1-.589-1.144,1.857,1.857,0,0,1-.01-1.263,1.034,1.034,0,0,0-1.259.321,2.281,2.281,0,0,0-.414,1.328,8.673,8.673,0,0,1-.1,1.409c-.227,1.019-1.068,1.856-1.131,2.9-.062,1.025.641,1.918.987,2.884a4.81,4.81,0,0,1,.258,1.877.753.753,0,0,0,.121.586.668.668,0,0,0,.261.141,17,17,0,0,0,5.238.682l2.92.074a.931.931,0,0,0,.516-.086c.262-.161.3-.521.3-.828.038-2.646-.074-5.292-.187-7.937a16.85,16.85,0,0,0-.286-2.86.82.82,0,0,0-.357-.61.788.788,0,0,0-.6.04,4.792,4.792,0,0,0-2.244,1.728c-.6.853-.894,1.876-1.48,2.735-.426.624-.672.08-.955-.379Z" transform="translate(-25.409 -28.06)"/><path class="c" d="M55.227,72.5c-.074.053-.147.108-.218.167a4.214,4.214,0,0,0-.7.739,5.851,5.851,0,0,0-.794,1.5,14.51,14.51,0,0,0-.633,2.923,7.056,7.056,0,0,0-.1,1.1c.022,1.357.824,2.615.825,3.973,0,.052,0,.1,0,.154a4.462,4.462,0,0,1-.078.662c-.059.319-.143.633-.227.947a9.043,9.043,0,0,1-.848,2.291c-.041.07-.086.139-.131.206H49.429c.023-.069.046-.137.069-.206l1.475-4.371c.151-.446.3-.893.407-1.351a12.8,12.8,0,0,0,.249-1.715q.17-1.793.224-3.594a4.37,4.37,0,0,1,.162-1.28,4.188,4.188,0,0,1,.514-.937l.894-1.346a2.068,2.068,0,0,1,.6-.662c.214-.131.467-.178.692-.289a3.538,3.538,0,0,0,.406-.269c.336-.238.731-.489,1.021-.245a.569.569,0,0,1,.12.137.691.691,0,0,1,.044.079C56.582,71.718,55.6,72.238,55.227,72.5Z" transform="translate(-24.687 -27.672)"/><path class="c" d="M65.251,90.39H51.875c.072-.066.143-.135.212-.206l.03-.031A4.855,4.855,0,0,0,53,88.278l.579-1.562a.808.808,0,0,1,.147-.277.458.458,0,0,1,.2-.122.789.789,0,0,1,.179-.033,2,2,0,0,1,.261,0q3.6.186,7.2.453l.928.071c.253.188.5.387.741.6a6.629,6.629,0,0,1,1.831,2.429c.046.115.089.231.124.35C65.214,90.252,65.234,90.321,65.251,90.39Z" transform="translate(-25.197 -30.898)"/><path class="c" d="M43.563,43.691l-2.745-1.438-3.79.588L36.243,46.3,38.2,46.23l.545-1.273v1.252l.9-.035.523-2.026.327,2.157,3.2-.065Z" transform="translate(-7.551 -8.804)"/><path class="c" d="M67.327,87.025h-3.02c-.022-.068-.042-.137-.062-.206a16.22,16.22,0,0,1-.468-2.339c-.032-.226-.06-.453-.086-.679-.017-.143-.032-.286-.047-.429a23.935,23.935,0,0,0-.793-4.725c-.059-.185-.123-.368-.185-.552a6.51,6.51,0,0,1-.268-.971c-.132-.755-.033-1.537-.169-2.291-.076-.421-.228-.791-.32-1.177a2.384,2.384,0,0,1-.068-.713,1.535,1.535,0,0,1,.8-.4.423.423,0,0,0,.285-.114.357.357,0,0,0,.047-.21,10.1,10.1,0,0,0-.084-1.455c-.021-.169-.046-.338-.077-.506,0-.008,0-.015,0-.024a2,2,0,0,1,.809-.109l.892,0,1.649.005a3.632,3.632,0,0,1,1.506.218,2.4,2.4,0,0,1,1.087,1.114,6.413,6.413,0,0,1,.491,1.5,2.014,2.014,0,0,1,.052.434c.023,1.161-.844,2.331-.93,3.518-.028.385,0,.773-.031,1.157s-.138.763-.157,1.149c0,.02,0,.04,0,.06a4.136,4.136,0,0,0,.3,1.468c.262.735.581,1.448.91,2.157.318.686.644,1.369.937,2.064a3.534,3.534,0,0,1,.3,1.02,1.416,1.416,0,0,1-.156.824.967.967,0,0,1-.123.174l0,0-.028.03h-3Z" transform="translate(-27.272 -27.532)"/><path class="e" d="M71.85,89.941a1.143,1.143,0,0,1-.11.4l-.015.036c-.06.141-.121.281-.184.421-.031.068-.062.137-.094.206H69.738a1.915,1.915,0,0,0,.171-.206c.262-.364.414-.807.681-1.2a.923.923,0,0,1,.125-.149C71.143,89.03,71.876,89.115,71.85,89.941Z" transform="translate(-28.918 -31.506)"/><path class="c" d="M72.6,87.425a2.025,2.025,0,0,0,.055-.206c.012-.055.023-.108.031-.163.055-.36.054-.728.139-1.082.121-.506.483-1.106.185-1.532a1.619,1.619,0,0,0,.641-.287.551.551,0,0,0,.173-.633c-.106-.207-.394-.345-.355-.575a.548.548,0,0,1,.1-.2,1.5,1.5,0,0,0-.026-1.644c-.094-.134-.209-.252-.3-.392a2.338,2.338,0,0,1-.214-.544,10.126,10.126,0,0,0-1.3-2.7,1.792,1.792,0,0,1-.288-.532,2.2,2.2,0,0,1-.023-.632,4.239,4.239,0,0,0-.74-2.349c-.033-.052-.067-.1-.1-.153a13.606,13.606,0,0,0-1.506-1.755.966.966,0,0,0-.53.385,1.143,1.143,0,0,0-.1.384c-.146,1.021-.273,2.049-.372,3.075a7.516,7.516,0,0,0-.041,1.56,2.518,2.518,0,0,0,.586,1.421c.22.241.5.421.736.644q.057.054.111.111a3.652,3.652,0,0,1,.455.6,5.149,5.149,0,0,1,.757,3.087,5.019,5.019,0,0,1-.077.582,2.406,2.406,0,0,1-.274.784c-.108.178-.251.334-.349.519a.656.656,0,0,0-.047.6,1.22,1.22,0,0,1,.426.076,1.808,1.808,0,0,1,.8.614,2.675,2.675,0,0,1,.2.314,3.864,3.864,0,0,1,.2.421c.025.057.048.116.071.174a.172.172,0,0,1,.012.032Z" transform="translate(-28.557 -27.932)"/><path class="d" d="M43.657,52.483l-2.187.954-.513.051-2.332-.507.1,2.075L41.007,54l.513-.051,2.442.588Z" transform="translate(-8.047 -10.936)"/><path class="c" d="M63.376,79.3c.023.068.042.137.06.206H64.2a1.91,1.91,0,0,0,.171-.206ZM43.16,34.013V79.5H71.68V34.013ZM71.474,79.3H43.366V34.219H71.474Zm-8.1,0c.023.068.042.137.06.206H64.2a1.91,1.91,0,0,0,.171-.206Z" transform="translate(-23.381 -20.009)"/><path class="d" d="M54.769,57.729l.018-.089A8.627,8.627,0,0,0,54,52.505l-.094-.179.2.029c.057.008,1.371.219,2.312,2.292a4.481,4.481,0,0,0-.093-2.1l-.037-.159.16.036a2.406,2.406,0,0,1,1.632,1.655l1.784-1.51V55.02c.48-.244,1.951-.9,2.887-.316l.143.089-.144.087c-.012.007-1.162.7-1.39,1.41.268,0,.909.011,1.543.05,1.628.1,1.765.285,1.765.453v.059l-.051.03c-.029.017-2.888,1.722-2.951,3.051l-.007.137ZM61.225,56.5H61.1l.02-.12c.113-.679,1-1.334,1.365-1.576-1.022-.452-2.662.472-2.68.482l-.154.088V53.013l-1.688,1.428-.043-.156a2.29,2.29,0,0,0-1.362-1.609,3.432,3.432,0,0,1-.051,2.3l-.106.176-.078-.19a3.87,3.87,0,0,0-2.04-2.342A8.913,8.913,0,0,1,55,57.591l6.466,2.2c.207-1.275,2.43-2.711,2.939-3.025a12.7,12.7,0,0,0-3.184-.268Z" transform="translate(-25.619 -23.824)"/><path class="d" d="M53.247,50.962a.37.37,0,1,1,.37.37A.37.37,0,0,1,53.247,50.962Zm.206,0a.164.164,0,1,0,.164-.164A.164.164,0,0,0,53.453,50.962Z" transform="translate(-25.482 -23.462)"/><path class="d" d="M56.618,50.962a.37.37,0,1,1,.37.37A.37.37,0,0,1,56.618,50.962Zm.206,0a.164.164,0,1,0,.164-.164A.164.164,0,0,0,56.824,50.962Z" transform="translate(-26.185 -23.462)"/><path class="d" d="M61.505,51.8a.37.37,0,1,1,.37.37.37.37,0,0,1-.37-.37Zm.206,0a.164.164,0,1,0,.164-.164.164.164,0,0,0-.164.164Z" transform="translate(-27.203 -23.638)"/><path class="d" d="M68.078,57.534a.37.37,0,1,1,.37.37.37.37,0,0,1-.37-.37Zm.206,0a.164.164,0,1,0,.164-.164A.164.164,0,0,0,68.284,57.534Z" transform="translate(-28.572 -24.832)"/><path class="d" d="M65.718,54.669a.37.37,0,1,1,.37.37A.37.37,0,0,1,65.718,54.669Zm.206,0a.164.164,0,1,0,.164-.164A.164.164,0,0,0,65.925,54.669Z" transform="translate(-28.081 -24.235)"/><rect class="i" width="93.762" height="0.206" transform="translate(1.238 66.559)"/></g></g></svg>