<svg xmlns="http://www.w3.org/2000/svg" xmlns:xlink="http://www.w3.org/1999/xlink" width="100" height="100" viewBox="0 0 100 100"><defs><style>.a,.g{fill:#f2f2f2;}.a{stroke:#fff;stroke-width:2px;}.b{clip-path:url(#c);}.c{fill:#e6e6e6;}.c,.d,.e,.f,.g,.h,.i{stroke:#707070;stroke-width:0.135px;}.d{fill:#fff;}.e{fill:#3f3d56;}.f{fill:#81d2ff;}.h{fill:#a0616a;}.i{fill:#2f2e41;}.j{filter:url(#a);}</style><filter id="a" x="-7.5" y="-2.5" width="115" height="115" filterUnits="userSpaceOnUse"><feOffset dy="5" input="SourceAlpha"/><feGaussianBlur stdDeviation="2.5" result="b"/><feFlood flood-opacity="0.078"/><feComposite operator="in" in2="b"/><feComposite in="SourceGraphic"/></filter><clipPath id="c"><g class="j" transform="matrix(1, 0, 0, 1, 0, 0)"><rect class="a" width="100" height="100" rx="15" transform="translate(15745 3583)"/></g></clipPath></defs><g class="b" transform="translate(-15745 -3583)"><g transform="translate(15745 3598.433)"><path class="c" d="M36.7,77.644l-1.286-2.078a30.756,30.756,0,0,1,1.426-3.16l.844.71-.658-1.064c.673-1.262,1.2-2.055,1.2-2.055A29.478,29.478,0,0,1,41.6,78.705l-1.756,2.6,1.916-1.485a12.445,12.445,0,0,1,.072,1.562c-.106,5.26-1.91,9.489-4.029,9.447s-3.751-4.341-3.645-9.6a16.383,16.383,0,0,1,.977-4.9Z" transform="translate(-23.26 -27.775)"/><path class="c" d="M29.691,80.49l-2.175-1.114a30.761,30.761,0,0,1-.413-3.442l1.09.172-1.114-.57c-.076-1.428-.036-2.379-.036-2.379a29.478,29.478,0,0,1,7.392,5.708L34.276,82l.873-2.262a12.445,12.445,0,0,1,.869,1.3c2.628,4.557,3.27,9.11,1.434,10.169S32,89.427,29.369,84.869a16.383,16.383,0,0,1-1.7-4.7Z" transform="translate(-22.073 -28.301)"/><path class="c" d="M41.7,100.812c-2.506.16-5.237-.009-8.142,0V94.161a29.346,29.346,0,0,0,8.142,0Z" transform="translate(-23.161 -31.802)"/><path class="c" d="M87.792,38.589,61.2,42.871l-.113-25.856L87.68,0Z" transform="translate(-10.181)"/><path class="d" d="M85.561,35.877l-22.99,4.959V19.2L85.561,6.72Z" transform="translate(-10.429 -1.12)"/><path class="e" d="M83.578,17.119,64.194,25.8V22.754l19.384-9.576Z" transform="translate(-10.699 -2.196)"/><path class="f" d="M83.578,26.866,64.194,33.7V30.7l19.384-7.72Z" transform="translate(-10.699 -3.83)"/><path class="c" d="M94.126,42.445a.073.073,0,0,1,.14,0l.314.989.376,1.185a.073.073,0,0,1-.041.089l-.727.3-.639.266a.073.073,0,0,1-.1-.084l.349-1.419Z" transform="translate(-33.142 -23.173)"/><path class="c" d="M92.74,51.288a.12.12,0,0,1,.231-.008l.263.829.363,1.144a.12.12,0,0,1-.068.147l-.687.286-.552.23a.12.12,0,0,1-.163-.139l.327-1.328Z" transform="translate(-32.921 -24.641)"/><path class="g" d="M83.578,36.555,64.194,41.549v-3.19l19.384-5.931Z" transform="translate(-10.699 -5.405)"/><path class="e" d="M107.726,39.675a1.709,1.709,0,0,1-.676,1.506c-.369.151-.665-.269-.665-.937a1.73,1.73,0,0,1,.665-1.5C107.422,38.579,107.726,39,107.726,39.675Z" transform="translate(-35.298 -22.56)"/><path class="d" d="M107.364,40.033a.575.575,0,0,1-.225.5c-.124.052-.224-.088-.224-.313a.577.577,0,0,1,.224-.5C107.262,39.667,107.364,39.807,107.364,40.033Z" transform="translate(-35.387 -22.727)"/><path class="f" d="M107.726,49.141a1.709,1.709,0,0,1-.676,1.506c-.369.151-.665-.269-.665-.937a1.73,1.73,0,0,1,.665-1.5C107.422,48.046,107.726,48.462,107.726,49.141Z" transform="translate(-35.298 -24.137)"/><path class="d" d="M107.364,49.5a.575.575,0,0,1-.225.5c-.124.052-.224-.088-.224-.313a.577.577,0,0,1,.224-.5C107.262,49.133,107.364,49.273,107.364,49.5Z" transform="translate(-35.387 -24.304)"/><path class="g" d="M107.726,58.608a1.709,1.709,0,0,1-.676,1.506c-.369.151-.665-.269-.665-.937a1.73,1.73,0,0,1,.665-1.5C107.422,57.512,107.726,57.929,107.726,58.608Z" transform="translate(-35.298 -25.715)"/><path class="d" d="M107.364,58.966a.575.575,0,0,1-.225.5c-.124.052-.224-.088-.224-.313a.577.577,0,0,1,.224-.5C107.262,58.6,107.364,58.74,107.364,58.966Z" transform="translate(-35.387 -25.882)"/><path class="c" d="M94.9,59.132a.12.12,0,0,1,.231-.008l.263.829.363,1.144a.12.12,0,0,1-.068.147L95,61.53l-.552.23a.12.12,0,0,1-.163-.139l.327-1.328Z" transform="translate(-33.282 -25.949)"/><path class="h" d="M89.346,56.741l1.049-.967s2.374-1.635,1.544-2.534-2.5,1.2-2.5,1.2l-1.037.679Z" transform="translate(-32.301 -24.945)"/><path class="i" d="M72.763,57.494l-.611.841s-.854,3.283,3.466,3.457c0,0,5.517,2.674,6.882,1s5.134-5.706,5.134-5.706l-2.217-2.253L80.9,59.553l-4.382-2.2S74.261,56.112,72.763,57.494Z" transform="translate(-29.581 -25.247)"/><path class="c" d="M47.224,57.389,41.5,78.461l.72.144,6.008-21.216Z" transform="translate(-6.917 -9.565)"/><path class="c" d="M56.487,57.389l5.719,21.072-.72.144L55.478,57.389Z" transform="translate(-9.246 -9.565)"/><path class="c" d="M52,56.813l.959,21.539.833.037L52.72,56.524Z" transform="translate(-8.667 -9.421)"/><path class="c" d="M74.8,75.63c0,.546-1.5,1.133-3.459,1.321-2.107.2-3.931-.126-3.931-.747s1.825-1.233,3.931-1.358C73.306,74.73,74.8,75.084,74.8,75.63Z" transform="translate(-28.803 -28.579)"/><path class="i" d="M78.643,71.359l1.441,1.009s6.2,4.467,5.62,6.2-3.747,8.646-3.747,8.646l-4.035-1.3,4.611-7.349-2.45-2.306-1.3-3.17Z" transform="translate(-30.555 -28.002)"/><path class="i" d="M71.7,68.141S68.82,72.608,70.549,73.9s6.629,6.341,6.629,6.341l1.009,2.306,3.6,11.673,4.467-2.306-4.035-9.079a12.943,12.943,0,0,0-1.873-5.188,13.234,13.234,0,0,1-2.017-4.611l.432-1.3-2.58-4.129Z" transform="translate(-29.234 -27.378)"/><path class="i" d="M80.4,89.231l-2.59-.788s-2.8-.115-2.653.894,2.45,7.638,3.17,7.205.144-2.45.144-2.45Z" transform="translate(-30.092 -30.848)"/><path class="h" d="M53.181,32.055,51.74,33.641l2.306,3.747,1.009-2.882Z" transform="translate(-8.623 -5.343)"/><path class="f" d="M75.444,57.2l-2.559-4.238-.9.2V54.6l-.288,12.1,4.755-.721S76.741,58.2,75.444,57.2Z" transform="translate(-29.517 -24.935)"/><path class="i" d="M72.763,57.092,70.6,53.2l-1.873.865L65.414,67.612,63.4,71.5s6.629,3.314,8.214,0S73.34,60.839,73.34,60.839Z" transform="translate(-28.134 -24.975)"/><path class="i" d="M69.729,54.806l-.865-.576s-3.314-.721-3.314,3.6c0,0-2.45,5.62-.721,6.917s5.908,4.9,5.908,4.9L72.9,67.343,68,63.02l2.017-4.467S71.17,56.247,69.729,54.806Z" transform="translate(-28.269 -25.139)"/><path class="h" d="M72.043,71.33l1.009,1.009s1.729,2.306,2.594,1.441-1.3-2.45-1.3-2.45l-.721-1.009Z" transform="translate(-29.575 -27.829)"/><path class="i" d="M75.951,56.474l2.473,6.063a21.959,21.959,0,0,1,1.009,4.179v3.17l-2.738-3.6S75.207,56.9,75.951,56.474Z" transform="translate(-30.191 -25.521)"/><path class="i" d="M85.388,97.871s-.714,2.811.223,3.049,8.8.439,8.8-.889-5.1-2.426-5.1-2.426l-1.887-1.211Z" transform="translate(-31.756 -32.174)"/><circle class="h" cx="2.594" cy="2.594" r="2.594" transform="translate(43.765 24.191)"/><path class="i" d="M78.858,50.14s.507-2.2,0-2.7v.338s-.338-1.182-1.013-.844c0,0-.844-.676-1.013-.338-.994-.9-5.4-.056-3.261,4.661,0,0,.39-1.452.39-.945a11.027,11.027,0,0,0,1.182-1.351C75.311,48.62,78.182,50.816,78.858,50.14Z" transform="translate(-29.733 -23.821)"/><rect class="e" width="100" height="0.252" transform="translate(0 68.882)"/></g></g></svg>