<svg xmlns="http://www.w3.org/2000/svg" width="86.57" height="65" viewBox="0 0 86.57 65"><defs><style>.a{fill:#3f3d56;}.b{fill:#ffb9b9;}.c{fill:#2f2e41;}.d{fill:#70c2ff;}.e{fill:#fff;}.f{fill:#f2f2f2;}.g{fill:#ff6584;}</style></defs><path class="a" d="M562.977,631.482q3.528-.46,6.783-.782l-.835-1.4c.29-.081,1.547.729,1.547.729l-1.061-4.048c1.45.163,2.125,4.292,2.125,4.292l1.645-1.375-.81,1.558c6.642-.58,12.373-.759,17.19-.714l-.715-1.2c.29-.081,1.547.729,1.547.729l-1.061-4.048c1.45.163,2.125,4.292,2.125,4.292l1.645-1.375-.858,1.65c4.038.112,7.327.38,9.865.671-.713-1.862-3.2-3.653-3.2-3.653a5.645,5.645,0,0,1,3.429,2.068,27.655,27.655,0,0,0-2.069-11.256s3.864,7.288,3.28,12.145l-.074.863a46.369,46.369,0,0,1,5.053.881Z" transform="translate(-522.979 -570.237)"/><ellipse class="a" cx="43.285" cy="3.367" rx="43.285" ry="3.367" transform="translate(0 58.267)"/><path class="b" d="M596.025,171.473a2.6,2.6,0,0,1-1.2,3.367c-2.164,1.082,5.771,3.126,6.613.481a2.431,2.431,0,0,1-1.2-3.367Z" transform="translate(-551.658 -163.706)"/><path class="b" d="M527.522,618.937l-.12,2.525,2.044.361V619.3Z" transform="translate(-480.57 -563.977)"/><path class="b" d="M422.356,618.937l.12,2.525-2.044.361V619.3Z" transform="translate(-383.099 -563.977)"/><circle class="b" cx="3.367" cy="3.367" r="3.367" transform="translate(43.345 2.417)"/><path class="b" d="M577.621,340l-.12.962.6,2.284.842-2.044Z" transform="translate(-526.221 -309.812)"/><path class="c" d="M523.957,424.363l-.721,8.537a4.084,4.084,0,0,0-.361,2.886s-.721,1.8-.481,2.4.361,1.2.12,1.443-.361,6.974,0,7.575a8.126,8.126,0,0,1,.6,2.044s2.044.481,2.525-.842.241-1.443.721-1.8.481-5.411.481-5.411-.6-.6-.24-.842.6,0,.24-.6-.962-.6-.361-.842a5.731,5.731,0,0,0,.962-.481l3.487-9.138s1.323,10.22,1.563,10.7.6-.12.24.481-.481.24-.361.6-.721,5.531-.24,6.613a16.3,16.3,0,0,1,.721,1.924s1.924.842,2.164.24.12-1.683.481-1.8.721-.361.721-1.323.721-5.651.721-5.651-.842-.361-.6-.962.24-.481.12-.962-.361-.6-.12-.962a3.881,3.881,0,0,0,.24-1.443l1.443-9.5L536.911,424Z" transform="translate(-485.902 -393.811)"/><path class="c" d="M636.484,720.774s-.361-.361-.481,0-.12,3.727-.12,3.727.962.721.962,1.082a1.981,1.981,0,0,0,2.4,1.323l.05-.007a1.592,1.592,0,0,0,1.184-2.253l-1.715-3.631S637.566,719.812,636.484,720.774Z" transform="translate(-589.411 -663.891)"/><path class="c" d="M510.674,720.774s.361-.361.481,0,.12,3.727.12,3.727-.962.721-.962,1.082a1.981,1.981,0,0,1-2.4,1.323l-.05-.007a1.592,1.592,0,0,1-1.184-2.253l1.715-3.631S509.592,719.812,510.674,720.774Z" transform="translate(-471.537 -663.891)"/><path class="c" d="M597.731,86.137l-.6-.241a4.1,4.1,0,0,1,3.008-1.264l-.492-.542a2.092,2.092,0,0,1,2.3.783A10.673,10.673,0,0,1,603.6,87.2h.644l-.269.592.941.592-.966-.106a3.276,3.276,0,0,1-.091,1.533l.026.468a14.386,14.386,0,0,1-1.12-1.973v.6s-.6-.542-.6-.9l-.328.421-.164-.662-2.023.662.328-.542-1.258.181.492-.662s-1.422.783-1.476,1.445a3.552,3.552,0,0,1-.766,1.505l-.328-.6S596.146,87.04,597.731,86.137Z" transform="translate(-553.586 -84)"/><path class="a" d="M687.638,233.082h1.339a.434.434,0,0,1,.423.338,23.715,23.715,0,0,1,.642,5.553c-.12,2.525.12,4.328,0,4.689s0,.481,0,.842.361.12,0,.6-.361.361-.361.721-1.2,5.892-1.2,5.892-.827-1.359-1.736-1.1l.173-4.912.24-2.044-.361-3.607Z" transform="translate(-635.756 -219.844)"/><path class="a" d="M547.122,209.23s-2.044-.074-2.705-.939c0,0-4.268,1.42-4.749,2.622s1.683,6.613,1.683,6.613-3.727,11.062-1.924,11.062,5.891,1.443,8.3.6a30.909,30.909,0,0,1,4.569-1.2,20.285,20.285,0,0,0,0-3.848c-.24-.6-.842-.24-.481-1.082s.241-.962.12-1.323.24-.842.24-1.323-.12-1.563-.12-1.563,3.246-7.575,2.525-8.3-4.394-2.111-4.394-2.111A3.014,3.014,0,0,1,547.122,209.23Z" transform="translate(-501.072 -197.255)"/><circle class="d" cx="2.645" cy="2.645" r="2.645" transform="translate(70.458 43.357)"/><ellipse class="e" cx="0.601" cy="1.323" rx="0.601" ry="1.323" transform="translate(70.699 44.68)"/><circle class="a" cx="2.645" cy="2.645" r="2.645" transform="translate(61.922 26.404)"/><ellipse class="e" cx="1.323" cy="0.601" rx="1.323" ry="0.601" transform="matrix(0.81, -0.587, 0.587, 0.81, 62.085, 27.878)"/><circle class="a" cx="1.648" cy="1.648" r="1.648" transform="translate(69.651 12.852)"/><ellipse class="e" cx="0.824" cy="0.375" rx="0.824" ry="0.375" transform="matrix(0.81, -0.587, 0.587, 0.81, 69.753, 13.771)"/><circle class="a" cx="1.648" cy="1.648" r="1.648" transform="translate(57.268 55.295)"/><ellipse class="e" cx="0.824" cy="0.375" rx="0.824" ry="0.375" transform="matrix(0.81, -0.587, 0.587, 0.81, 57.368, 56.214)"/><circle class="a" cx="2.645" cy="2.645" r="2.645" transform="translate(70.218 31.334)"/><ellipse class="e" cx="0.601" cy="1.323" rx="0.601" ry="1.323" transform="translate(70.458 32.656)"/><circle class="d" cx="2.645" cy="2.645" r="2.645" transform="translate(61.681 14.38)"/><ellipse class="e" cx="1.323" cy="0.601" rx="1.323" ry="0.601" transform="matrix(0.81, -0.587, 0.587, 0.81, 61.844, 15.854)"/><circle class="d" cx="1.648" cy="1.648" r="1.648" transform="translate(69.411 0.829)"/><ellipse class="e" cx="0.824" cy="0.375" rx="0.824" ry="0.375" transform="matrix(0.81, -0.587, 0.587, 0.81, 69.513, 1.747)"/><circle class="a" cx="1.648" cy="1.648" r="1.648" transform="translate(57.026 43.272)"/><ellipse class="e" cx="0.824" cy="0.375" rx="0.824" ry="0.375" transform="matrix(0.81, -0.587, 0.587, 0.81, 57.128, 44.19)"/><rect class="f" width="33.305" height="20.215" transform="translate(6.012 34.091)"/><path class="b" d="M521.546,437.544s-1.082,5.651.721,5.17.962-5.17.962-5.17Z" transform="translate(-484.935 -406.15)"/><path class="a" d="M518.165,233.082l-.427.213a1.2,1.2,0,0,0-.645.855l-1.693,9.031a12.472,12.472,0,0,0-.481,1.2c0,.12.241.12,0,.481s-.6.24-.361.481a.745.745,0,0,1,.241.481l.24,5.892s2.044-.6,2.645,0c0,0-.6-1.8-.24-2.4a3.247,3.247,0,0,0,.361-1.443s-.241,0,.361-.6.721-.842.6-.962a5.111,5.111,0,0,1-.241-1.323c0-.12,1.2-8.176,1.2-8.176Z" transform="translate(-478.788 -219.844)"/><circle class="d" cx="7.291" cy="7.291" r="7.291" transform="translate(15.788 36.411)"/><path class="a" d="M305.9,533.7c-1.4,0-4.491-1.438-7.24-3.121-3.411-2.09-6.725-4.821-6.145-5.767.164-.267.569-.337,1.241-.214l-.048.262c-.52-.1-.872-.062-.965.091-.137.224.165.872,1.423,2.023a35.849,35.849,0,0,0,9.748,5.971c1.6.6,2.312.571,2.449.348.094-.154-.037-.482-.358-.9l.212-.162c.415.542.538.936.374,1.2A.754.754,0,0,1,305.9,533.7Z" transform="translate(-276.473 -485.419)"/><circle class="e" cx="1.491" cy="1.491" r="1.491" transform="translate(20.688 38.463)"/><circle class="e" cx="0.994" cy="0.994" r="0.994" transform="translate(21.616 47.135)"/><circle class="e" cx="0.994" cy="0.994" r="0.994" transform="translate(25.04 43.727)"/><path class="g" d="M152.009,446.671a2.342,2.342,0,1,0-3.039,3.563l3.563,3.039,3.039-3.563a2.342,2.342,0,1,0-3.563-3.039Z" transform="translate(-144.986 -413.717)"/></svg>