<svg xmlns="http://www.w3.org/2000/svg" width="15.934" height="13" viewBox="0 0 15.934 13"><defs><style>.a{fill:#fff;}</style></defs><path class="a" d="M15.019,4.81A4.718,4.718,0,0,0,9.828,3.177a3.866,3.866,0,0,0-1.906,1.39A3.856,3.856,0,0,0,6.106,3.291,4.714,4.714,0,0,0,.915,4.923,4.048,4.048,0,0,0,.241,8.859a3.672,3.672,0,0,0,1.81,2.2.914.914,0,0,0,.626-1.706,2.812,2.812,0,0,1-.822-1.546,2.3,2.3,0,0,1,.52-1.787,2.906,2.906,0,0,1,3.15-1A2.387,2.387,0,0,1,7.053,7.529v7.5a.914.914,0,0,0,1.828,0V7.417A2.388,2.388,0,0,1,10.41,4.911a2.9,2.9,0,0,1,3.15,1A2.3,2.3,0,0,1,14.079,7.7a2.814,2.814,0,0,1-.821,1.546.914.914,0,0,0,.626,1.707,3.678,3.678,0,0,0,1.81-2.2A4.047,4.047,0,0,0,15.019,4.81Z" transform="translate(0 -2.947)"/></svg>