<svg xmlns="http://www.w3.org/2000/svg" width="15.5" height="15.5" viewBox="0 0 15.5 15.5"><defs><style>.a{fill:#fff;stroke:#fff;stroke-width:0.5px;}</style></defs><g transform="translate(0.25 0.25)"><path class="a" d="M12.407,7.412A2.577,2.577,0,0,0,11.22,7.7c0-.008,0-.016,0-.024V3.616q0-.017,0-.034a4.372,4.372,0,0,0-.566-1.777A3.665,3.665,0,0,0,7.266,0,3.648,3.648,0,0,0,4.314,1.28a2.459,2.459,0,0,0-.126-.236A2.172,2.172,0,0,0,2.251,0,2.126,2.126,0,0,0,.328,1.053,1.973,1.973,0,0,0,0,2.109a.586.586,0,0,0,1.17.041,1.384,1.384,0,0,1,.187-.535.953.953,0,0,1,.894-.443,1,1,0,0,1,.918.452,1.449,1.449,0,0,1,.2.524v8.867a.586.586,0,1,0,1.172,0V3.644a3.389,3.389,0,0,1,.437-1.28A2.48,2.48,0,0,1,7.266,1.172,2.549,2.549,0,0,1,9.623,2.363a3.234,3.234,0,0,1,.426,1.275V7.676c0,3.062-1.631,6.152-5.273,6.152a.586.586,0,0,0,0,1.172,5.966,5.966,0,0,0,4.778-2.188,6.66,6.66,0,0,0,.8-1.232,2.592,2.592,0,1,0,2.058-4.168Zm0,4.014A1.421,1.421,0,1,1,13.828,10,1.423,1.423,0,0,1,12.407,11.426Z"/></g></svg>