<svg xmlns="http://www.w3.org/2000/svg" width="14.5" height="14.5" viewBox="0 0 14.5 14.5"><defs><style>.a{fill:#fff;stroke:#fff;stroke-width:0.5px;}</style></defs><g transform="translate(0.25 0.25)"><path class="a" d="M12.906,11.758a1.148,1.148,0,0,1-1.164,1.148,1.166,1.166,0,0,1-1.133-1.174V2.461a2.461,2.461,0,1,0-4.922,0V8.118a3.389,3.389,0,1,0,1.094,2.492V2.461a1.367,1.367,0,1,1,2.734,0v9.272A2.263,2.263,0,0,0,11.728,14h.03A2.242,2.242,0,0,0,14,11.758ZM3.391,12.906a2.3,2.3,0,1,1,2.3-2.3A2.3,2.3,0,0,1,3.391,12.906Z" transform="translate(0 0)"/></g></svg>