<svg xmlns="http://www.w3.org/2000/svg" width="19.25" height="21" viewBox="0 0 19.25 21"><defs><style>.a{fill:#fff;}</style></defs><path class="a" d="M320.355,18.844A2.844,2.844,0,1,1,317.512,16,2.844,2.844,0,0,1,320.355,18.844Zm0,0" transform="translate(-301.762 -15.344)"/><path class="a" d="M302.168,7a3.5,3.5,0,1,1,3.5-3.5A3.5,3.5,0,0,1,302.168,7Zm0-5.688A2.188,2.188,0,1,0,304.355,3.5a2.19,2.19,0,0,0-2.187-2.187Zm0,0" transform="translate(-286.418 0)"/><path class="a" d="M320.355,360.176a2.844,2.844,0,1,1-2.844-2.844A2.844,2.844,0,0,1,320.355,360.176Zm0,0" transform="translate(-301.762 -342.676)"/><path class="a" d="M302.168,348.332a3.5,3.5,0,1,1,3.5-3.5A3.5,3.5,0,0,1,302.168,348.332Zm0-5.688a2.188,2.188,0,1,0,2.187,2.188A2.19,2.19,0,0,0,302.168,342.645Zm0,0" transform="translate(-286.418 -327.332)"/><path class="a" d="M21.688,189.512a2.844,2.844,0,1,1-2.844-2.844A2.844,2.844,0,0,1,21.688,189.512Zm0,0" transform="translate(-15.344 -179.012)"/><path class="a" d="M3.5,177.668a3.5,3.5,0,1,1,3.5-3.5,3.5,3.5,0,0,1-3.5,3.5Zm0-5.687a2.187,2.187,0,1,0,2.188,2.187A2.19,2.19,0,0,0,3.5,171.98Zm0,0" transform="translate(0 -163.668)"/><path class="a" d="M115.224,96.594a.875.875,0,0,1-.434-1.635l8.119-4.629a.875.875,0,1,1,.866,1.521l-8.119,4.629a.869.869,0,0,1-.432.115Zm0,0" transform="translate(-109.658 -86.514)"/><path class="a" d="M123.364,272.6a.87.87,0,0,1-.432-.115l-8.119-4.629a.875.875,0,0,1,.866-1.521l8.119,4.629a.875.875,0,0,1-.434,1.635Zm0,0" transform="translate(-109.681 -255.299)"/></svg>