<svg xmlns="http://www.w3.org/2000/svg" width="18.75" height="17.361" viewBox="0 0 18.75 17.361"><defs><style>.a{fill:#fff;}</style></defs><path class="a" d="M.732,24.091h5.53a2.565,2.565,0,1,0-1.835-4.357.732.732,0,0,0,1.048,1.023,1.1,1.1,0,0,1,1.885.767,1.1,1.1,0,0,1-1.1,1.1H.732a.732.732,0,0,0,0,1.465Z" transform="translate(0 -18.961)"/><path class="a" d="M324.065,272.943h-3.333a.732.732,0,0,0,0,1.465h3.333A1.5,1.5,0,1,1,323,276.974a.732.732,0,1,0-1.036,1.036,2.967,2.967,0,1,0,2.1-5.067Z" transform="translate(-308.281 -263.642)"/><path class="a" d="M.732,195.5H3.186a.732.732,0,0,0,0-1.465H.732a.732.732,0,0,0,0,1.465Z" transform="translate(0 -187.627)"/><path class="a" d="M172.6,73.853a1.5,1.5,0,1,1,1.067,2.561h-5.933a.732.732,0,0,0,0,1.465h5.933a2.968,2.968,0,1,0-2.109-5.056.732.732,0,0,0,1.041,1.03Z" transform="translate(-160.884 -70.003)"/><path class="a" d="M.732,274.408l8.057,0h0a.732.732,0,0,0,0-1.465l-8.057,0h0a.732.732,0,0,0,0,1.465Z" transform="translate(0 -263.642)"/><path class="a" d="M7.727,352.961H.732a.732.732,0,0,0,0,1.465H7.727a1.1,1.1,0,0,1,0,2.2,1.09,1.09,0,0,1-.786-.331.732.732,0,1,0-1.048,1.023,2.564,2.564,0,1,0,1.835-4.357Z" transform="translate(0 -340.73)"/></svg>