<svg xmlns="http://www.w3.org/2000/svg" width="18.499" height="18.497" viewBox="0 0 18.499 18.497"><defs><style>.a{fill:#007aff;}</style></defs><path class="a" d="M10.714,12.626a6.86,6.86,0,0,0-1.441-.769,3.678,3.678,0,0,0,1.2-2.426,5.439,5.439,0,0,1,6.9-.564.723.723,0,1,0,.827-1.185,6.868,6.868,0,0,0-1.441-.769A3.685,3.685,0,1,0,11.79,6.9q-.151.058-.3.124a6.862,6.862,0,0,0-1.273.731,3.684,3.684,0,1,0-5.912,4.084,6.949,6.949,0,0,0-4.2,4.323A2.168,2.168,0,0,0,2.172,19H8.459a.723.723,0,0,0,0-1.445H2.172a.723.723,0,0,1-.688-.944,5.575,5.575,0,0,1,5.3-3.771,5.4,5.4,0,0,1,3.107.974.722.722,0,1,0,.827-1.185ZM14.275,1.946a2.24,2.24,0,1,1-2.24,2.24A2.242,2.242,0,0,1,14.275,1.946ZM6.8,6.891a2.24,2.24,0,1,1-2.24,2.24A2.242,2.242,0,0,1,6.8,6.891ZM18.5,15.566a.723.723,0,0,1-.723.722H15.792v1.987a.723.723,0,1,1-1.445,0V16.288H12.36a.723.723,0,0,1,0-1.445h1.987V12.856a.723.723,0,0,1,1.445,0v1.987h1.987a.723.723,0,0,1,.723.723Zm0,0" transform="translate(-0.003 -0.501)"/></svg>