<svg xmlns="http://www.w3.org/2000/svg" width="18.77" height="16.423" viewBox="0 0 18.77 16.423"><defs><style>.a{fill:#007aff;}</style></defs><g transform="translate(0 3.519)"><path class="a" d="M18.183,135.035a.587.587,0,0,0-.587.587v4.106H1.173v-7.039H7.625a.587.587,0,0,0,0-1.173H1.173v-2.346H7.625a.587.587,0,0,0,0-1.173H1.173A1.174,1.174,0,0,0,0,129.169v10.558A1.174,1.174,0,0,0,1.173,140.9H17.6a1.174,1.174,0,0,0,1.173-1.173v-4.106A.587.587,0,0,0,18.183,135.035Z" transform="translate(0 -127.996)"/></g><g transform="translate(2.346 10.557)"><path class="a" d="M66.933,320H64.587a.587.587,0,0,0,0,1.173h2.346a.587.587,0,0,0,0-1.173Z" transform="translate(-64 -319.996)"/></g><g transform="translate(9.385)"><path class="a" d="M265.029,33.81l-4.106-1.76a.6.6,0,0,0-.463,0l-4.106,1.76a.588.588,0,0,0-.354.54V36.7c0,3.227,1.193,5.114,4.4,6.961a.59.59,0,0,0,.584,0c3.207-1.843,4.4-3.729,4.4-6.961V34.35A.587.587,0,0,0,265.029,33.81Zm-.818,2.886c0,2.709-.9,4.2-3.519,5.772-2.623-1.575-3.519-3.066-3.519-5.772V34.737l3.519-1.509,3.519,1.509Z" transform="translate(-256 -32.004)"/></g><g transform="translate(11.731 3.52)"><path class="a" d="M324.484,128.143a.59.59,0,0,0-.825.092l-1.844,2.306-.73-1.091a.586.586,0,1,0-.976.65l1.173,1.76a.591.591,0,0,0,.463.262h.025a.587.587,0,0,0,.459-.221l2.346-2.933A.587.587,0,0,0,324.484,128.143Z" transform="translate(-320.011 -128.016)"/></g></svg>