<svg xmlns="http://www.w3.org/2000/svg" width="18.082" height="18.082" viewBox="0 0 18.082 18.082"><defs><style>.a{fill:#007aff;}</style></defs><path class="a" d="M222.6,343.22a.948.948,0,0,0,0,1.9.948.948,0,0,0,0-1.9Z" transform="translate(-213.839 -331.099)"/><path class="a" d="M186.447,140c-1.662,0-2.425.985-2.425,1.65a.706.706,0,0,0,.739.7c.665,0,.394-.948,1.65-.948.616,0,1.108.271,1.108.837,0,.665-.689,1.046-1.1,1.391a2.253,2.253,0,0,0-.825,1.871c0,.64.172.825.677.825.6,0,.726-.271.726-.5a1.546,1.546,0,0,1,.689-1.539,3.151,3.151,0,0,0,1.379-2.253C189.069,140.876,188.023,140,186.447,140Z" transform="translate(-177.523 -135.058)"/><path class="a" d="M9.041,0A9.036,9.036,0,0,0,0,9.041v8.335a.706.706,0,0,0,.706.706H9.041A9.041,9.041,0,0,0,9.041,0Zm0,16.669H1.413V9.041a7.628,7.628,0,1,1,7.628,7.628Z"/></svg>