<svg xmlns="http://www.w3.org/2000/svg" width="19.331" height="19.331" viewBox="0 0 19.331 19.331"><defs><style>.a{fill:#007aff;}</style></defs><path class="a" d="M11.7,18.465h1.933V16.532H11.7ZM12.666,3a9.666,9.666,0,1,0,9.666,9.666A9.669,9.669,0,0,0,12.666,3Zm0,17.4A7.732,7.732,0,1,1,20.4,12.666,7.743,7.743,0,0,1,12.666,20.4Zm0-13.532A3.865,3.865,0,0,0,8.8,10.732h1.933a1.933,1.933,0,1,1,3.866,0c0,1.933-2.9,1.691-2.9,4.833h1.933c0-2.175,2.9-2.416,2.9-4.833A3.865,3.865,0,0,0,12.666,6.866Z" transform="translate(-3 -3)"/></svg>