<svg xmlns="http://www.w3.org/2000/svg" width="18.662" height="22" viewBox="0 0 18.662 22"><defs><style>.a{fill:#007aff;}</style></defs><path class="a" d="M18.28,76.133H14.755a6.377,6.377,0,0,0,.693-1.192,3.878,3.878,0,0,0,.342-1.513,3.6,3.6,0,0,0-1-2.554,2.8,2.8,0,0,0-1.988-.855,2.842,2.842,0,0,0-2.211,1.112,2.842,2.842,0,0,0-2.211-1.112,2.8,2.8,0,0,0-2.148,1.036,3.682,3.682,0,0,0-.844,2.365,3.818,3.818,0,0,0,.33,1.518,6.27,6.27,0,0,0,.69,1.195H3.03a.645.645,0,0,0-.559.324L.665,79.61a1.225,1.225,0,0,0,1.058,1.836h1.3L3.2,84.679A1.626,1.626,0,0,0,5.09,86.3l1.387-.18.011,2.25a.645.645,0,0,0,.645.642H15.07a.645.645,0,0,0,.645-.645v-4.84c2.021-1.317,3.1-3.578,3.209-6.726a.645.645,0,0,0-.644-.667ZM8.374,71.309A1.774,1.774,0,0,1,9.968,72.69a.645.645,0,0,0,1.234,0A1.774,1.774,0,0,1,12.8,71.309a1.522,1.522,0,0,1,1.074.475A2.3,2.3,0,0,1,14.5,73.42a2.6,2.6,0,0,1-.236,1.009,6.7,6.7,0,0,1-1.341,1.883c-.011.011-.022.022-.032.034a16.049,16.049,0,0,1-2.307,1.923c-.314-.215-.813-.573-1.352-1.029A8.323,8.323,0,0,1,6.9,74.432a2.544,2.544,0,0,1-.226-1,1.958,1.958,0,0,1,1.7-2.119ZM16.9,80.241a5.137,5.137,0,0,1-2.15,2.366.645.645,0,0,0-.323.559v4.556H7.773l-.009-1.828L8.983,85.6a2.792,2.792,0,0,0,1.842-1.457c.4-.783.9-1.807.907-1.817a.645.645,0,1,0-1.156-.569c-.005.01-.506,1.028-.9,1.8a1.505,1.505,0,0,1-.992.786L7,84.751l-2.09.271-.028,0a.325.325,0,0,1-.272-.076.34.34,0,0,1-.119-.27c0-.017,0-.035,0-.052l-.2-3.6a.645.645,0,0,0-.6-.873H1.837L3.4,77.422H7.519a17.092,17.092,0,0,0,2.727,2.169.645.645,0,0,0,.681,0,17.17,17.17,0,0,0,2.712-2.167H17.6a8.413,8.413,0,0,1-.7,2.819Zm0,0" transform="translate(-0.5 -67.011)"/><path class="a" d="M221.657,1.752a.644.644,0,0,0,.645-.645V.645a.645.645,0,0,0-1.289,0v.463A.644.644,0,0,0,221.657,1.752Zm0,0" transform="translate(-211.537)"/><path class="a" d="M84.655,47.2a.645.645,0,0,0,.913-.91l-.411-.412a.645.645,0,0,0-.913.91Zm0,0" transform="translate(-80.466 -43.726)"/><path class="a" d="M350.7,47.39a.643.643,0,0,0,.456-.189l.411-.412a.645.645,0,0,0-.913-.91l-.411.412a.644.644,0,0,0,.456,1.1Zm0,0" transform="translate(-335.037 -43.726)"/><path class="a" d="M38.063,153.547h.491a.645.645,0,0,0,0-1.289h-.491a.645.645,0,0,0,0,1.289Zm0,0" transform="translate(-35.831 -145.716)"/><path class="a" d="M394.332,152.258h-.5a.645.645,0,0,0,0,1.289h.5a.645.645,0,0,0,0-1.289Zm0,0" transform="translate(-376.314 -145.716)"/></svg>