<svg xmlns="http://www.w3.org/2000/svg" width="22.001" height="20.266" viewBox="0 0 22.001 20.266"><defs><style>.a{fill:#007aff;}</style></defs><path class="a" d="M20.675,247.22a.645.645,0,0,0-.716.564,8.86,8.86,0,0,1-17.329,1.3l.771.423a.645.645,0,0,0,.621-1.13l-1.978-1.086a.645.645,0,0,0-.875.254L.081,249.524a.645.645,0,0,0,1.129.622l.252-.458a10.149,10.149,0,0,0,19.777-1.752.644.644,0,0,0-.563-.716Zm0,0" transform="translate(-0.001 -236.592)"/><path class="a" d="M48.89,5.508a.645.645,0,0,0-.847.337l-.2.471A10.149,10.149,0,0,0,28.517,8.038a.645.645,0,0,0,1.261.266A8.861,8.861,0,0,1,46.739,7.038l-.816-.351a.645.645,0,1,0-.509,1.184l2.073.892a.629.629,0,0,0,.847-.337l.893-2.071a.644.644,0,0,0-.337-.847Zm0,0" transform="translate(-27.278 -0.004)"/><path class="a" d="M122.769,75.323a1.559,1.559,0,1,0-2.948-.856,4.063,4.063,0,0,0-3.832,1.919l-1.741,2.835a1.423,1.423,0,0,0-1.522.769l-.115.231a1.422,1.422,0,0,0,.642,1.9l3.768,1.867a1.5,1.5,0,0,0,.758,2.124,1.705,1.705,0,0,0,2.149-.683l.4.2a1.421,1.421,0,0,0,1.9-.642l.115-.231a1.423,1.423,0,0,0-.31-1.677l1.2-3.1a4.064,4.064,0,0,0-.794-4.212,1.556,1.556,0,0,0,.327-.443Zm-1.4-.965a.271.271,0,1,1-.271.271A.271.271,0,0,1,121.371,74.358Zm-2.764,10.62a.334.334,0,0,1-.427-.411l.59.292A.332.332,0,0,1,118.607,84.978Zm3.427-5.466-1.308,3.379a.861.861,0,0,0,.4,1.116h0a.131.131,0,0,1,.06.177l-.115.231a.133.133,0,0,1-.176.059l-7.073-3.5a.132.132,0,0,1-.06-.176l.115-.231a.127.127,0,0,1,.177-.06.859.859,0,0,0,1.134-.354l1.9-3.087a2.772,2.772,0,0,1,3.592-1.033h0a2.772,2.772,0,0,1,1.354,3.484Zm0,0" transform="translate(-107.632 -69.931)"/></svg>