<svg xmlns="http://www.w3.org/2000/svg" width="21.331" height="21.331" viewBox="0 0 21.331 21.331"><defs><style>.a{fill:#007aff;}</style></defs><path class="a" d="M11.335,21.331H10a1.966,1.966,0,0,1-1.964-1.964v-.453A8.612,8.612,0,0,1,6.7,18.359l-.321.321a1.964,1.964,0,0,1-2.777,0l-.946-.946a1.964,1.964,0,0,1,0-2.777l.321-.321A8.612,8.612,0,0,1,2.417,13.3H1.964A1.966,1.966,0,0,1,0,11.335V10A1.966,1.966,0,0,1,1.964,8.032h.453A8.614,8.614,0,0,1,2.972,6.7l-.321-.321a1.964,1.964,0,0,1,0-2.777L3.6,2.651a1.963,1.963,0,0,1,2.777,0l.321.321a8.62,8.62,0,0,1,1.337-.555V1.964A1.966,1.966,0,0,1,10,0h1.339A1.966,1.966,0,0,1,13.3,1.964v.453a8.611,8.611,0,0,1,1.337.555l.321-.321a1.964,1.964,0,0,1,2.777,0l.946.946a1.964,1.964,0,0,1,0,2.777l-.321.321a8.613,8.613,0,0,1,.555,1.337h.453A1.966,1.966,0,0,1,21.331,10v1.339A1.966,1.966,0,0,1,19.367,13.3h-.453a8.614,8.614,0,0,1-.555,1.337l.321.321a1.964,1.964,0,0,1,0,2.777l-.946.946a1.963,1.963,0,0,1-2.777,0l-.321-.321a8.62,8.62,0,0,1-1.337.555v.453A1.966,1.966,0,0,1,11.335,21.331ZM6.9,17.047a7.366,7.366,0,0,0,1.909.793.625.625,0,0,1,.469.605v.923a.715.715,0,0,0,.714.714h1.339a.715.715,0,0,0,.714-.714v-.923a.625.625,0,0,1,.469-.605,7.366,7.366,0,0,0,1.909-.793.625.625,0,0,1,.76.1l.654.654a.714.714,0,0,0,1.009,0l.947-.947a.714.714,0,0,0,0-1.009l-.654-.654a.625.625,0,0,1-.1-.76,7.365,7.365,0,0,0,.793-1.909.625.625,0,0,1,.605-.469h.923a.715.715,0,0,0,.714-.714V10a.715.715,0,0,0-.714-.714h-.923a.625.625,0,0,1-.605-.469A7.367,7.367,0,0,0,17.047,6.9a.625.625,0,0,1,.1-.76l.654-.654a.714.714,0,0,0,0-1.009l-.947-.947a.714.714,0,0,0-1.009,0l-.654.654a.625.625,0,0,1-.76.1,7.366,7.366,0,0,0-1.909-.793.625.625,0,0,1-.469-.605V1.964a.715.715,0,0,0-.714-.714H10a.715.715,0,0,0-.714.714v.923a.625.625,0,0,1-.469.605A7.366,7.366,0,0,0,6.9,4.284a.625.625,0,0,1-.76-.1l-.654-.654a.714.714,0,0,0-1.009,0l-.947.947a.714.714,0,0,0,0,1.009l.654.654a.625.625,0,0,1,.1.76,7.365,7.365,0,0,0-.793,1.909.625.625,0,0,1-.605.469H1.964A.715.715,0,0,0,1.25,10v1.339a.715.715,0,0,0,.714.714h.923a.625.625,0,0,1,.605.469,7.366,7.366,0,0,0,.793,1.909.625.625,0,0,1-.1.76l-.654.654a.714.714,0,0,0,0,1.009l.947.947a.714.714,0,0,0,1.009,0l.654-.654a.628.628,0,0,1,.76-.1Z" transform="translate(0)"/><path class="a" d="M149.241,153.882a4.641,4.641,0,1,1,4.641-4.641A4.646,4.646,0,0,1,149.241,153.882Zm0-8.032a3.391,3.391,0,1,0,3.391,3.391A3.4,3.4,0,0,0,149.241,145.85Z" transform="translate(-138.575 -138.576)"/></svg>