<svg xmlns="http://www.w3.org/2000/svg" width="21.301" height="21.301" viewBox="0 0 21.301 21.301"><defs><style>.a{fill:#007aff;stroke:#007aff;stroke-width:0.3px;}</style></defs><g transform="translate(0.15 0.15)"><path class="a" d="M17.925,3.075a10.5,10.5,0,0,0-14.85,14.85,10.5,10.5,0,0,0,14.85-14.85ZM5.264,18.145a5.317,5.317,0,0,1,10.472,0,9.25,9.25,0,0,1-10.472,0Zm1.9-8.963A3.339,3.339,0,1,1,10.5,12.521,3.342,3.342,0,0,1,7.161,9.182ZM16.8,17.292a6.558,6.558,0,0,0-3.812-4.28,4.569,4.569,0,1,0-4.979,0A6.557,6.557,0,0,0,4.2,17.292a9.27,9.27,0,1,1,12.6,0Zm0,0" transform="translate(0.001)"/></g></svg>